<svg width="70" height="70" viewBox="0 0 70 70" fill="none" xmlns="http://www.w3.org/2000/svg">
<path d="M67.8125 59.064H37.1875C35.98 59.064 35 58.084 35 56.8765C35 55.669 35 14.334 35 13.1265C35 11.919 35.98 10.939 37.1875 10.939H67.8125C69.02 10.939 70 11.919 70 13.1265V56.8765C70 58.084 69.02 59.064 67.8125 59.064Z" fill="#ECEFF1"/>
<path d="M45.9375 24.064H37.1875C35.98 24.064 35 23.084 35 21.8765C35 20.669 35.98 19.689 37.1875 19.689H45.9375C47.145 19.689 48.125 20.669 48.125 21.8765C48.125 23.084 47.145 24.064 45.9375 24.064Z" fill="#388E3C"/>
<path d="M45.9375 32.814H37.1875C35.98 32.814 35 31.834 35 30.6265C35 29.419 35.98 28.439 37.1875 28.439H45.9375C47.145 28.439 48.125 29.419 48.125 30.6265C48.125 31.834 47.145 32.814 45.9375 32.814Z" fill="#388E3C"/>
<path d="M45.9375 41.564H37.1875C35.98 41.564 35 40.584 35 39.3765C35 38.169 35.98 37.189 37.1875 37.189H45.9375C47.145 37.189 48.125 38.169 48.125 39.3765C48.125 40.584 47.145 41.564 45.9375 41.564Z" fill="#388E3C"/>
<path d="M45.9375 50.314H37.1875C35.98 50.314 35 49.334 35 48.1265C35 46.919 35.98 45.939 37.1875 45.939H45.9375C47.145 45.939 48.125 46.919 48.125 48.1265C48.125 49.334 47.145 50.314 45.9375 50.314Z" fill="#388E3C"/>
<path d="M59.0625 24.064H54.6875C53.48 24.064 52.5 23.084 52.5 21.8765C52.5 20.669 53.48 19.689 54.6875 19.689H59.0625C60.27 19.689 61.25 20.669 61.25 21.8765C61.25 23.084 60.27 24.064 59.0625 24.064Z" fill="#388E3C"/>
<path d="M59.0625 32.814H54.6875C53.48 32.814 52.5 31.834 52.5 30.6265C52.5 29.419 53.48 28.439 54.6875 28.439H59.0625C60.27 28.439 61.25 29.419 61.25 30.6265C61.25 31.834 60.27 32.814 59.0625 32.814Z" fill="#388E3C"/>
<path d="M59.0625 41.564H54.6875C53.48 41.564 52.5 40.584 52.5 39.3765C52.5 38.169 53.48 37.189 54.6875 37.189H59.0625C60.27 37.189 61.25 38.169 61.25 39.3765C61.25 40.584 60.27 41.564 59.0625 41.564Z" fill="#388E3C"/>
<path d="M59.0625 50.314H54.6875C53.48 50.314 52.5 49.334 52.5 48.1265C52.5 46.919 53.48 45.939 54.6875 45.939H59.0625C60.27 45.939 61.25 46.919 61.25 48.1265C61.25 49.334 60.27 50.314 59.0625 50.314Z" fill="#388E3C"/>
<path d="M38.5831 2.69211C38.0844 2.27648 37.415 2.09711 36.785 2.22836L1.785 8.79086C0.748125 8.98336 0 9.88461 0 10.939V59.064C0 60.114 0.748125 61.0196 1.785 61.2121L36.785 67.7746C36.9162 67.8009 37.0519 67.814 37.1875 67.814C37.695 67.814 38.1894 67.639 38.5831 67.3109C39.0863 66.8952 39.375 66.274 39.375 65.6265V4.37648C39.375 3.72461 39.0863 3.10773 38.5831 2.69211Z" fill="#2E7D32"/>
<path d="M30.0828 42.3122L23.1659 34.4065L30.1615 25.4115C30.9053 24.4578 30.7303 23.084 29.7809 22.3403C28.8315 21.5965 27.4578 21.7715 26.7097 22.7209L20.2303 31.0509L14.7703 24.8122C13.9697 23.8934 12.5872 23.8103 11.6859 24.6065C10.7759 25.4028 10.684 26.7853 11.4803 27.6909L17.4959 34.5684L11.3972 42.4084C10.6534 43.3622 10.8284 44.7359 11.7778 45.4797C12.1803 45.7903 12.6572 45.939 13.1253 45.939C13.7772 45.939 14.4203 45.6503 14.8534 45.0947L20.4315 37.9197L26.7928 45.1865C27.2259 45.6853 27.8297 45.939 28.4378 45.939C28.9497 45.939 29.4615 45.7597 29.8772 45.3965C30.7872 44.6003 30.879 43.2178 30.0828 42.3122Z" fill="#FAFAFA"/>
</svg>
