<svg width="70" height="70" viewBox="0 0 70 70" fill="none" xmlns="http://www.w3.org/2000/svg">
<path opacity="0.4" d="M63.4365 25.9059V49.5834C63.609 51.0614 63.4447 52.5593 62.956 53.9648C62.4673 55.3702 61.6669 56.6469 60.6147 57.6991C59.5625 58.7513 58.2858 59.5517 56.8804 60.0404C55.4749 60.5291 53.977 60.6934 52.499 60.5209H17.499C16.0211 60.6934 14.5232 60.5291 13.1177 60.0404C11.7123 59.5517 10.4356 58.7513 9.38341 57.6991C8.33123 56.6469 7.5308 55.3702 7.04211 53.9648C6.55341 52.5593 6.38912 51.0614 6.56155 49.5834V20.4168C6.38912 18.9388 6.55341 17.4409 7.04211 16.0355C7.5308 14.63 8.33123 13.3533 9.38341 12.3011C10.4356 11.249 11.7123 10.4485 13.1177 9.95983C14.5232 9.47114 16.0211 9.30685 17.499 9.47927H43.1657C43.2948 9.48265 43.4215 9.51455 43.5368 9.57267C43.652 9.6308 43.753 9.71371 43.8325 9.81547C43.9119 9.91722 43.9679 10.0353 43.9963 10.1612C44.0248 10.2872 44.025 10.4178 43.997 10.5439C43.3088 13.9518 44.0009 17.4935 45.9213 20.3917C47.8418 23.2898 50.8337 25.3076 54.2403 26.0022C56.9366 26.5412 59.734 26.2198 62.2378 25.0834C62.3713 25.0303 62.5158 25.0108 62.6586 25.0267C62.8015 25.0427 62.9382 25.0935 63.0566 25.1748C63.1751 25.2561 63.2718 25.3654 63.338 25.4929C63.4043 25.6204 63.4381 25.7622 63.4365 25.9059Z" fill="#396CE8"/>
<path d="M58.8049 41.3058L45.8199 28.3208C45.2699 27.7729 44.5253 27.4653 43.749 27.4653C42.9728 27.4653 42.2281 27.7729 41.6782 28.3208L27.2699 42.7291C26.9973 42.9963 26.6307 43.146 26.249 43.146C25.8673 43.146 25.5008 42.9963 25.2282 42.7291L22.4865 39.9875C21.9366 39.4396 21.192 39.132 20.4157 39.132C19.6394 39.132 18.8948 39.4396 18.3449 39.9875L11.1932 47.1391C11.029 47.3031 10.9367 47.5255 10.9365 47.7575V49.5833C10.9365 54.1916 12.8907 56.1458 17.499 56.1458H52.499C57.1074 56.1458 59.0615 54.1916 59.0615 49.5833V41.9241C59.0613 41.6921 58.969 41.4697 58.8049 41.3058Z" fill="#396CE8"/>
<path d="M23.3328 29.8959C22.854 29.8976 22.3796 29.805 21.9366 29.6234C21.4936 29.4418 21.0907 29.1747 20.751 28.8374C20.0648 28.1561 19.6773 27.2301 19.6739 26.2632C19.6704 25.2963 20.0511 24.3676 20.7324 23.6814C21.4137 22.9952 22.3396 22.6077 23.3066 22.6042H23.3328C24.2997 22.6042 25.2271 22.9884 25.9108 23.6721C26.5945 24.3558 26.9786 25.2831 26.9786 26.2501C26.9786 27.217 26.5945 28.1443 25.9108 28.8281C25.2271 29.5118 24.2997 29.8959 23.3328 29.8959Z" fill="#396CE8"/>
<path d="M61.2497 12.3958H57.6038V8.75C57.6038 8.16984 57.3734 7.61344 56.9631 7.2032C56.5529 6.79297 55.9965 6.5625 55.4163 6.5625C54.8362 6.5625 54.2798 6.79297 53.8695 7.2032C53.4593 7.61344 53.2288 8.16984 53.2288 8.75V12.3958H49.583C49.0028 12.3958 48.4464 12.6263 48.0362 13.0365C47.626 13.4468 47.3955 14.0032 47.3955 14.5833C47.3955 15.1635 47.626 15.7199 48.0362 16.1301C48.4464 16.5404 49.0028 16.7708 49.583 16.7708H53.2288V20.4167C53.2288 20.9968 53.4593 21.5532 53.8695 21.9635C54.2798 22.3737 54.8362 22.6042 55.4163 22.6042C55.9965 22.6042 56.5529 22.3737 56.9631 21.9635C57.3734 21.5532 57.6038 20.9968 57.6038 20.4167V16.7708H61.2497C61.8298 16.7708 62.3862 16.5404 62.7965 16.1301C63.2067 15.7199 63.4372 15.1635 63.4372 14.5833C63.4372 14.0032 63.2067 13.4468 62.7965 13.0365C62.3862 12.6263 61.8298 12.3958 61.2497 12.3958Z" fill="#396CE8"/>
</svg>
