<svg width="70" height="70" viewBox="0 0 70 70" fill="none" xmlns="http://www.w3.org/2000/svg">
<path fill-rule="evenodd" clip-rule="evenodd" d="M17.9371 0H41.3404L61.1755 20.6747V60.8871C61.1755 65.9245 57.1 70 52.08 70H17.9371C12.8997 70 8.82422 65.9245 8.82422 60.8871V9.11291C8.82413 4.07545 12.8996 0 17.9371 0Z" fill="#E5252A"/>
<path opacity="0.302" fill-rule="evenodd" clip-rule="evenodd" d="M41.3223 0V20.5173H61.1749L41.3223 0Z" fill="white"/>
<path d="M18.9512 52.229V39.4429H24.391C25.7378 39.4429 26.8048 39.8102 27.6094 40.5623C28.414 41.2969 28.8163 42.294 28.8163 43.5358C28.8163 44.7777 28.414 45.7747 27.6094 46.5093C26.8048 47.2615 25.7378 47.6288 24.391 47.6288H22.222V52.229H18.9512ZM22.222 44.8477H24.0237C24.5134 44.8477 24.8982 44.7427 25.1606 44.4979C25.4229 44.2705 25.563 43.9557 25.563 43.5359C25.563 43.1162 25.423 42.8013 25.1606 42.5739C24.8983 42.329 24.5135 42.2241 24.0237 42.2241H22.222V44.8477ZM30.1631 52.229V39.4429H34.6933C35.5853 39.4429 36.4249 39.5653 37.212 39.8277C37.9991 40.09 38.7163 40.4574 39.3459 40.9647C39.9757 41.4544 40.4829 42.119 40.8502 42.9586C41.2 43.7982 41.3925 44.7603 41.3925 45.8447C41.3925 46.9117 41.2001 47.8737 40.8502 48.7132C40.4829 49.5528 39.9757 50.2175 39.3459 50.7072C38.7162 51.2144 37.9991 51.5817 37.212 51.8442C36.4249 52.1065 35.5853 52.229 34.6933 52.229H30.1631ZM33.364 49.4479H34.3085C34.8157 49.4479 35.288 49.3955 35.7253 49.273C36.145 49.1506 36.5474 48.9581 36.9322 48.6958C37.2995 48.4335 37.5968 48.0661 37.8067 47.5763C38.0166 47.0866 38.1216 46.5093 38.1216 45.8447C38.1216 45.1625 38.0166 44.5853 37.8067 44.0956C37.5968 43.6059 37.2995 43.2386 36.9322 42.9762C36.5474 42.7138 36.1451 42.5214 35.7253 42.399C35.288 42.2766 34.8157 42.224 34.3085 42.224H33.364V49.4479ZM43.0366 52.229V39.4429H52.1321V42.224H46.3075V44.2705H50.9601V47.0341H46.3075V52.229H43.0366Z" fill="white"/>
</svg>
