<svg width="70" height="70" viewBox="0 0 70 70" fill="none" xmlns="http://www.w3.org/2000/svg">
<path d="M67.8125 59.063H37.1875C35.98 59.063 35 58.0874 35 56.8755C35 55.6636 35 14.333 35 13.1255C35 11.918 35.98 10.938 37.1875 10.938H67.8125C69.02 10.938 70 11.918 70 13.1255V56.8755C70 58.0874 69.02 59.063 67.8125 59.063Z" fill="#ECEFF1"/>
<path d="M59.0625 24.063H37.1875C35.98 24.063 35 23.0874 35 21.8755C35 20.6636 35.98 19.688 37.1875 19.688H59.0625C60.27 19.688 61.25 20.668 61.25 21.8755C61.25 23.083 60.27 24.063 59.0625 24.063Z" fill="#1976D2"/>
<path d="M59.0625 32.813H37.1875C35.98 32.813 35 31.8374 35 30.6255C35 29.4136 35.98 28.438 37.1875 28.438H59.0625C60.27 28.438 61.25 29.418 61.25 30.6255C61.25 31.833 60.27 32.813 59.0625 32.813Z" fill="#1976D2"/>
<path d="M59.0625 41.563H37.1875C35.98 41.563 35 40.5874 35 39.3755C35 38.1636 35.98 37.188 37.1875 37.188H59.0625C60.27 37.188 61.25 38.168 61.25 39.3755C61.25 40.583 60.27 41.563 59.0625 41.563Z" fill="#1976D2"/>
<path d="M59.0625 50.313H37.1875C35.98 50.313 35 49.3374 35 48.1255C35 46.9136 35.98 45.938 37.1875 45.938H59.0625C60.27 45.938 61.25 46.918 61.25 48.1255C61.25 49.333 60.27 50.313 59.0625 50.313Z" fill="#1976D2"/>
<path d="M38.5831 2.69543C38.0844 2.27543 37.415 2.10043 36.785 2.2273L1.785 8.7898C0.7525 8.9823 0 9.88793 0 10.9379V59.0629C0 60.1129 0.748125 61.0186 1.785 61.2111L36.785 67.7736C36.9206 67.7998 37.0519 67.8129 37.1875 67.8129C37.695 67.8129 38.1894 67.6379 38.5831 67.3098C39.0863 66.8942 39.375 66.2773 39.375 65.6254V4.37543C39.375 3.72356 39.0863 3.11105 38.5831 2.69543Z" fill="#1565C0"/>
<path d="M28.4247 46.183C28.311 47.1848 27.5235 47.9855 26.5216 48.108C26.4297 48.1211 26.3422 48.1255 26.2503 48.1255C25.3491 48.1255 24.5266 47.5655 24.2028 46.708L19.6878 34.668L15.1728 46.708C14.8228 47.6442 13.9041 48.2173 12.8891 48.1123C11.896 48.0073 11.0997 47.2373 10.9597 46.2442L8.77221 30.9317C8.60158 29.7417 9.43283 28.6305 10.6272 28.4598C11.826 28.2848 12.9328 29.1205 13.1035 30.3148L14.0791 37.1573L17.636 27.668C18.2747 25.9617 21.0922 25.9617 21.7353 27.668L25.0866 36.6017L26.2635 26.0055C26.3991 24.8067 27.5103 23.9448 28.6785 24.0717C29.8816 24.2117 30.7435 25.2923 30.6122 26.4911L28.4247 46.183Z" fill="#FAFAFA"/>
</svg>
