<svg width="1202" height="91" viewBox="0 0 1202 91" fill="none" xmlns="http://www.w3.org/2000/svg">
<mask id="mask0_1_1170" style="mask-type:luminance" maskUnits="userSpaceOnUse" x="0" y="30" width="31" height="32">
<path d="M0 30.9948H30.4375V61.6614H0V30.9948Z" fill="white"/>
</mask>
<g mask="url(#mask0_1_1170)">
<mask id="mask1_1_1170" style="mask-type:luminance" maskUnits="userSpaceOnUse" x="0" y="0" width="121" height="92">
<path d="M0.666667 0L120.536 0.875L119.87 91.8958L0 91.0208L0.666667 0Z" fill="white"/>
</mask>
<g mask="url(#mask1_1_1170)">
<path d="M29.2188 61.401L0.21875 61.1875L15.8906 31.0729" fill="#005F9C"/>
</g>
</g>
<mask id="mask2_1_1170" style="mask-type:luminance" maskUnits="userSpaceOnUse" x="15" y="28" width="32" height="34">
<path d="M15.7708 28.3281H46.4375V61.6615H15.7708V28.3281Z" fill="white"/>
</mask>
<g mask="url(#mask2_1_1170)">
<mask id="mask3_1_1170" style="mask-type:luminance" maskUnits="userSpaceOnUse" x="0" y="0" width="121" height="92">
<path d="M0.666667 0L120.536 0.875L119.87 91.8958L0 91.0208L0.666667 0Z" fill="white"/>
</mask>
<g mask="url(#mask3_1_1170)">
<path d="M45.1198 29.3229L15.8594 31.0781L29.2188 61.401" fill="#007AB5"/>
</g>
</g>
<mask id="mask4_1_1170" style="mask-type:luminance" maskUnits="userSpaceOnUse" x="15" y="0" width="32" height="33">
<path d="M15.7708 0H46.4375V32.3281H15.7708V0Z" fill="white"/>
</mask>
<g mask="url(#mask4_1_1170)">
<mask id="mask5_1_1170" style="mask-type:luminance" maskUnits="userSpaceOnUse" x="0" y="0" width="121" height="92">
<path d="M0.666667 0L120.536 0.875L119.87 91.8958L0 91.0208L0.666667 0Z" fill="white"/>
</mask>
<g mask="url(#mask5_1_1170)">
<path d="M31.8177 0.223938L15.8594 31.0781L45.1198 29.3229" fill="#0095D2"/>
</g>
</g>
<mask id="mask6_1_1170" style="mask-type:luminance" maskUnits="userSpaceOnUse" x="30" y="0" width="30" height="30">
<path d="M30.4375 0H59.7708V29.6615H30.4375V0Z" fill="white"/>
</mask>
<g mask="url(#mask6_1_1170)">
<mask id="mask7_1_1170" style="mask-type:luminance" maskUnits="userSpaceOnUse" x="0" y="0" width="121" height="92">
<path d="M0.666667 0L120.536 0.875L119.87 91.8958L0 91.0208L0.666667 0Z" fill="white"/>
</mask>
<g mask="url(#mask7_1_1170)">
<path d="M45.1198 29.3281L31.5677 0.229126L59.0937 0.432251" fill="#00B4F6"/>
</g>
</g>
<mask id="mask8_1_1170" style="mask-type:luminance" maskUnits="userSpaceOnUse" x="45" y="0" width="29" height="33">
<path d="M45.1042 0.328125H73.1042V32.3281H45.1042V0.328125Z" fill="white"/>
</mask>
<g mask="url(#mask8_1_1170)">
<mask id="mask9_1_1170" style="mask-type:luminance" maskUnits="userSpaceOnUse" x="0" y="0" width="121" height="92">
<path d="M0.666667 0L120.536 0.875L119.87 91.8958L0 91.0208L0.666667 0Z" fill="white"/>
</mask>
<g mask="url(#mask9_1_1170)">
<path d="M72.3021 31.4896L45.125 29.0781L59.0938 0.421875" fill="#0095D3"/>
</g>
</g>
<mask id="mask10_1_1170" style="mask-type:luminance" maskUnits="userSpaceOnUse" x="45" y="28" width="29" height="31">
<path d="M45.1042 28.3281H73.1042V58.9948H45.1042V28.3281Z" fill="white"/>
</mask>
<g mask="url(#mask10_1_1170)">
<mask id="mask11_1_1170" style="mask-type:luminance" maskUnits="userSpaceOnUse" x="0" y="0" width="121" height="92">
<path d="M0.666667 0L120.536 0.875L119.87 91.8958L0 91.0208L0.666667 0Z" fill="white"/>
</mask>
<g mask="url(#mask11_1_1170)">
<path d="M72.3021 31.4896L45.1198 29.0781L56.1771 58.3646" fill="#0079B5"/>
</g>
</g>
<mask id="mask12_1_1170" style="mask-type:luminance" maskUnits="userSpaceOnUse" x="58" y="58" width="30" height="33">
<path d="M58.4375 58.9948H87.7708V90.9948H58.4375V58.9948Z" fill="white"/>
</mask>
<g mask="url(#mask12_1_1170)">
<mask id="mask13_1_1170" style="mask-type:luminance" maskUnits="userSpaceOnUse" x="0" y="0" width="121" height="92">
<path d="M0.666667 0L120.536 0.875L119.87 91.8958L0 91.0208L0.666667 0Z" fill="white"/>
</mask>
<g mask="url(#mask13_1_1170)">
<path d="M71.6354 90.5208L58.9583 59.4219L87.1042 61.2135" fill="#004A80"/>
</g>
</g>
<mask id="mask14_1_1170" style="mask-type:luminance" maskUnits="userSpaceOnUse" x="41" y="58" width="31" height="33">
<path d="M41.1042 58.9948H71.7708V90.9948H41.1042V58.9948Z" fill="white"/>
</mask>
<g mask="url(#mask14_1_1170)">
<mask id="mask15_1_1170" style="mask-type:luminance" maskUnits="userSpaceOnUse" x="0" y="0" width="121" height="92">
<path d="M0.666667 0L120.536 0.875L119.87 91.8958L0 91.0208L0.666667 0Z" fill="white"/>
</mask>
<g mask="url(#mask15_1_1170)">
<path d="M59.099 59.1823L42.3229 88.6511L71.7552 90.5261" fill="#003368"/>
</g>
</g>
<mask id="mask16_1_1170" style="mask-type:luminance" maskUnits="userSpaceOnUse" x="58" y="30" width="30" height="32">
<path d="M58.4375 30.9948H87.7708V61.6614H58.4375V30.9948Z" fill="white"/>
</mask>
<g mask="url(#mask16_1_1170)">
<mask id="mask17_1_1170" style="mask-type:luminance" maskUnits="userSpaceOnUse" x="0" y="0" width="121" height="92">
<path d="M0.666667 0L120.536 0.875L119.87 91.8958L0 91.0208L0.666667 0Z" fill="white"/>
</mask>
<g mask="url(#mask17_1_1170)">
<path d="M58.901 59.4167L87.1042 61.2135L74.8594 31.125L58.901 59.4167Z" fill="#00619F"/>
</g>
</g>
<mask id="mask18_1_1170" style="mask-type:luminance" maskUnits="userSpaceOnUse" x="74" y="29" width="32" height="34">
<path d="M74.4375 29.6614H105.104V62.9948H74.4375V29.6614Z" fill="white"/>
</mask>
<g mask="url(#mask18_1_1170)">
<mask id="mask19_1_1170" style="mask-type:luminance" maskUnits="userSpaceOnUse" x="0" y="0" width="121" height="92">
<path d="M0.666667 0L120.536 0.875L119.87 91.8958L0 91.0208L0.666667 0Z" fill="white"/>
</mask>
<g mask="url(#mask19_1_1170)">
<path d="M104.401 30.3958L74.8125 30.9739L86.6302 62.0156" fill="#0079B5"/>
</g>
</g>
<mask id="mask20_1_1170" style="mask-type:luminance" maskUnits="userSpaceOnUse" x="74" y="0" width="32" height="33">
<path d="M74.4375 0.328125H105.104V32.3281H74.4375V0.328125Z" fill="white"/>
</mask>
<g mask="url(#mask20_1_1170)">
<mask id="mask21_1_1170" style="mask-type:luminance" maskUnits="userSpaceOnUse" x="0" y="0" width="121" height="92">
<path d="M0.666667 0L120.536 0.875L119.87 91.8958L0 91.0208L0.666667 0Z" fill="white"/>
</mask>
<g mask="url(#mask21_1_1170)">
<path d="M75.0469 31.1406L104.146 30.5313L92.7135 1.23438L75.0469 31.1406Z" fill="#0094D2"/>
</g>
</g>
<mask id="mask22_1_1170" style="mask-type:luminance" maskUnits="userSpaceOnUse" x="91" y="0" width="31" height="33">
<path d="M91.7708 0.328125H121.104V32.3281H91.7708V0.328125Z" fill="white"/>
</mask>
<g mask="url(#mask22_1_1170)">
<mask id="mask23_1_1170" style="mask-type:luminance" maskUnits="userSpaceOnUse" x="0" y="0" width="121" height="92">
<path d="M0.666667 0L120.536 0.875L119.87 91.8958L0 91.0208L0.666667 0Z" fill="white"/>
</mask>
<g mask="url(#mask23_1_1170)">
<path d="M92.4635 1.22394L104.109 31.0208L119.938 2.97394L92.4635 1.22394Z" fill="#00B2F3"/>
</g>
</g>
<mask id="mask24_1_1170" style="mask-type:luminance" maskUnits="userSpaceOnUse" x="118" y="2" width="1084" height="84">
<path d="M1201.1 2.99475H118.438V85.6614H1201.1V2.99475Z" fill="white"/>
</mask>
<g mask="url(#mask24_1_1170)">
<path d="M158.041 56.6997H136.395L132.249 66.6997H121.187L141.978 20.0538H152.645L173.499 66.6997H162.187L158.041 56.6997ZM154.645 48.5122L147.249 30.6372L139.853 48.5122H154.645Z" fill="#000B4B"/>
<path d="M210.755 66.6997L201.755 53.6997H191.838V66.6997H181.047V20.0538H201.234C205.359 20.0538 208.942 20.7413 211.984 22.1163C215.036 23.4913 217.385 25.4497 219.026 27.9913C220.661 30.5226 221.484 33.5122 221.484 36.9705C221.484 40.4445 220.651 43.4393 218.984 45.9497C217.317 48.4497 214.953 50.3663 211.901 51.6997L222.359 66.6997H210.755ZM210.567 36.9705C210.567 34.3611 209.718 32.3559 208.026 30.9497C206.343 29.5486 203.88 28.8455 200.63 28.8455H191.838V45.1163H200.63C203.88 45.1163 206.343 44.408 208.026 42.9913C209.718 41.5643 210.567 39.5538 210.567 36.9705Z" fill="#000B4B"/>
<path d="M255.07 50.1788V66.6997H244.278V50.033L226.216 20.0538H237.674L250.153 40.783L262.612 20.0538H273.216L255.07 50.1788Z" fill="#000B4B"/>
<path d="M301.12 67.4913C294.463 67.4913 289.276 65.6528 285.557 61.9705C281.849 58.2778 279.995 53.0122 279.995 46.1788V20.0538H290.807V45.783C290.807 54.132 294.271 58.3038 301.203 58.3038C304.578 58.3038 307.151 57.2986 308.932 55.283C310.708 53.257 311.599 50.0903 311.599 45.783V20.0538H322.245V46.1788C322.245 53.0122 320.39 58.2778 316.682 61.9705C312.974 65.6528 307.786 67.4913 301.12 67.4913Z" fill="#000B4B"/>
<path d="M393.222 58.033V66.6997H357.118V20.0538H392.368V28.7205H367.847V38.8455H389.493V47.2413H367.847V58.033H393.222Z" fill="#000B4B"/>
<path d="M447.272 20.0538V66.6997H438.418L415.147 38.3663V66.6997H404.501V20.0538H413.418L436.605 48.3663V20.0538H447.272Z" fill="#000B4B"/>
<path d="M470.66 28.8455H455.743V20.0538H496.389V28.8455H481.472V66.6997H470.66V28.8455Z" fill="#000B4B"/>
<path d="M540.969 58.033V66.6997H504.865V20.0538H540.115V28.7205H515.594V38.8455H537.24V47.2413H515.594V58.033H540.969Z" fill="#000B4B"/>
<path d="M581.957 66.6997L572.957 53.6997H563.04V66.6997H552.248V20.0538H572.436C576.561 20.0538 580.144 20.7413 583.186 22.1163C586.238 23.4913 588.587 25.4497 590.228 27.9913C591.863 30.5226 592.686 33.5122 592.686 36.9705C592.686 40.4445 591.853 43.4393 590.186 45.9497C588.519 48.4497 586.155 50.3663 583.103 51.6997L593.561 66.6997H581.957ZM581.769 36.9705C581.769 34.3611 580.92 32.3559 579.228 30.9497C577.545 29.5486 575.082 28.8455 571.832 28.8455H563.04V45.1163H571.832C575.082 45.1163 577.545 44.408 579.228 42.9913C580.92 41.5643 581.769 39.5538 581.769 36.9705Z" fill="#000B4B"/>
<path d="M624.084 20.0538C628.209 20.0538 631.793 20.7413 634.834 22.1163C637.886 23.4913 640.235 25.4497 641.876 27.9913C643.511 30.5226 644.334 33.5122 644.334 36.9705C644.334 40.4028 643.511 43.3976 641.876 45.9497C640.235 48.4913 637.886 50.4445 634.834 51.8038C631.793 53.1684 628.209 53.8455 624.084 53.8455H614.688V66.6997H603.897V20.0538H624.084ZM623.48 45.033C626.73 45.033 629.194 44.3403 630.876 42.9497C632.569 41.5486 633.418 39.5538 633.418 36.9705C633.418 34.3611 632.569 32.3559 630.876 30.9497C629.194 29.5486 626.73 28.8455 623.48 28.8455H614.688V45.033H623.48Z" fill="#000B4B"/>
<path d="M685.053 66.6997L676.053 53.6997H666.137V66.6997H655.345V20.0538H675.533C679.658 20.0538 683.241 20.7413 686.283 22.1163C689.335 23.4913 691.684 25.4497 693.324 27.9913C694.96 30.5226 695.783 33.5122 695.783 36.9705C695.783 40.4445 694.949 43.4393 693.283 45.9497C691.616 48.4497 689.251 50.3663 686.199 51.6997L696.658 66.6997H685.053ZM684.866 36.9705C684.866 34.3611 684.017 32.3559 682.324 30.9497C680.642 29.5486 678.178 28.8455 674.928 28.8455H666.137V45.1163H674.928C678.178 45.1163 680.642 44.408 682.324 42.9913C684.017 41.5643 684.866 39.5538 684.866 36.9705Z" fill="#000B4B"/>
<path d="M706.993 20.0538H717.785V66.6997H706.993V20.0538Z" fill="#000B4B"/>
<path d="M746.831 67.4913C743.148 67.4913 739.586 66.9913 736.143 65.9913C732.695 64.9913 729.935 63.6945 727.852 62.0955L731.518 53.9705C733.503 55.4445 735.872 56.6268 738.622 57.5122C741.383 58.4028 744.143 58.8455 746.893 58.8455C749.961 58.8455 752.227 58.3872 753.685 57.4705C755.154 56.5538 755.893 55.3455 755.893 53.8455C755.893 52.7361 755.461 51.8143 754.602 51.0747C753.737 50.3403 752.628 49.7517 751.268 49.3038C749.904 48.8611 748.07 48.3767 745.768 47.8455C742.211 47.0017 739.299 46.1528 737.039 45.3038C734.773 44.4601 732.831 43.1059 731.206 41.2413C729.581 39.382 728.768 36.8976 728.768 33.783C728.768 31.0747 729.497 28.6267 730.956 26.4288C732.424 24.2205 734.643 22.4705 737.602 21.1788C740.56 19.8872 744.169 19.2413 748.435 19.2413C751.404 19.2413 754.315 19.6059 757.164 20.3247C760.008 21.033 762.497 22.0538 764.622 23.3872L761.289 31.5747C756.982 29.132 752.674 27.908 748.372 27.908C745.341 27.908 743.107 28.4028 741.664 29.3872C740.216 30.3611 739.497 31.6476 739.497 33.2413C739.497 34.8403 740.331 36.0278 741.997 36.8038C743.664 37.5851 746.211 38.3559 749.643 39.1163C753.195 39.9497 756.107 40.7934 758.372 41.6372C760.633 42.4861 762.57 43.8195 764.185 45.6372C765.81 47.4601 766.622 49.9236 766.622 53.033C766.622 55.6997 765.878 58.1372 764.393 60.3455C762.904 62.5434 760.669 64.283 757.685 65.5747C754.711 66.8507 751.091 67.4913 746.831 67.4913Z" fill="#000B4B"/>
<path d="M812.806 58.033V66.6997H776.702V20.0538H811.952V28.7205H787.431V38.8455H809.077V47.2413H787.431V58.033H812.806Z" fill="#000B4B"/>
<path d="M839.398 67.4913C835.716 67.4913 832.153 66.9913 828.71 65.9913C825.262 64.9913 822.502 63.6945 820.419 62.0955L824.085 53.9705C826.07 55.4445 828.44 56.6268 831.19 57.5122C833.95 58.4028 836.71 58.8455 839.46 58.8455C842.528 58.8455 844.794 58.3872 846.252 57.4705C847.721 56.5538 848.46 55.3455 848.46 53.8455C848.46 52.7361 848.028 51.8143 847.169 51.0747C846.304 50.3403 845.195 49.7517 843.835 49.3038C842.471 48.8611 840.637 48.3767 838.335 47.8455C834.778 47.0017 831.867 46.1528 829.606 45.3038C827.341 44.4601 825.398 43.1059 823.773 41.2413C822.148 39.382 821.335 36.8976 821.335 33.783C821.335 31.0747 822.065 28.6267 823.523 26.4288C824.992 24.2205 827.21 22.4705 830.169 21.1788C833.127 19.8872 836.736 19.2413 841.002 19.2413C843.971 19.2413 846.882 19.6059 849.731 20.3247C852.575 21.033 855.065 22.0538 857.19 23.3872L853.856 31.5747C849.549 29.132 845.242 27.908 840.94 27.908C837.908 27.908 835.674 28.4028 834.231 29.3872C832.783 30.3611 832.065 31.6476 832.065 33.2413C832.065 34.8403 832.898 36.0278 834.565 36.8038C836.231 37.5851 838.778 38.3559 842.21 39.1163C845.762 39.9497 848.674 40.7934 850.94 41.6372C853.2 42.4861 855.137 43.8195 856.752 45.6372C858.377 47.4601 859.19 49.9236 859.19 53.033C859.19 55.6997 858.445 58.1372 856.96 60.3455C855.471 62.5434 853.236 64.283 850.252 65.5747C847.278 66.8507 843.658 67.4913 839.398 67.4913Z" fill="#000B4B"/>
<path d="M910.983 20.0538C915.108 20.0538 918.691 20.7413 921.733 22.1163C924.785 23.4913 927.134 25.4497 928.775 27.9913C930.41 30.5226 931.233 33.5122 931.233 36.9705C931.233 40.4028 930.41 43.3976 928.775 45.9497C927.134 48.4913 924.785 50.4445 921.733 51.8038C918.691 53.1684 915.108 53.8455 910.983 53.8455H901.587V66.6997H890.795V20.0538H910.983ZM910.379 45.033C913.629 45.033 916.092 44.3403 917.775 42.9497C919.467 41.5486 920.316 39.5538 920.316 36.9705C920.316 34.3611 919.467 32.3559 917.775 30.9497C916.092 29.5486 913.629 28.8455 910.379 28.8455H901.587V45.033H910.379Z" fill="#000B4B"/>
<path d="M987.077 20.0538L966.89 66.6997H956.223L936.098 20.0538H947.765L961.952 53.3663L976.348 20.0538H987.077Z" fill="#000B4B"/>
<path d="M1004.27 28.8455H989.354V20.0538H1030V28.8455H1015.08V66.6997H1004.27V28.8455Z" fill="#000B4B"/>
<path d="M1060 20.0538H1070.79V57.908H1094.19V66.6997H1060V20.0538Z" fill="#000B4B"/>
<path d="M1112.57 28.8455H1097.65V20.0538H1138.3V28.8455H1123.38V66.6997H1112.57V28.8455Z" fill="#000B4B"/>
<path d="M1146.77 20.0538H1167.96C1173.01 20.0538 1177.49 21.0226 1181.38 22.9497C1185.26 24.882 1188.28 27.6059 1190.44 31.1163C1192.6 34.6163 1193.69 38.6997 1193.69 43.3663C1193.69 48.033 1192.6 52.1267 1190.44 55.6372C1188.28 59.1528 1185.26 61.8768 1181.38 63.8038C1177.49 65.7361 1173.01 66.6997 1167.96 66.6997H1146.77V20.0538ZM1167.42 57.8455C1172.08 57.8455 1175.8 56.5486 1178.58 53.9497C1181.36 51.3403 1182.75 47.8143 1182.75 43.3663C1182.75 38.9236 1181.36 35.4028 1178.58 32.8038C1175.8 30.2101 1172.08 28.908 1167.42 28.908H1157.56V57.8455H1167.42Z" fill="#000B4B"/>
</g>
</svg>
