<svg width="46" height="35" viewBox="0 0 46 35" fill="none" xmlns="http://www.w3.org/2000/svg">
<mask id="mask0_672_748" style="mask-type:luminance" maskUnits="userSpaceOnUse" x="0" y="0" width="46" height="35">
<path d="M45.1798 0.328375L0.249023 0L-0.000189799 34.0992L44.9306 34.4276L45.1798 0.328375Z" fill="white"/>
</mask>
<g mask="url(#mask0_672_748)">
<path d="M10.951 23.0017L0.0810547 22.9222L5.95581 11.6406" fill="#005F9C"/>
<path d="M16.9129 10.9883L5.94531 11.6446L10.9519 23.0058" fill="#007AB5"/>
<path d="M11.9257 0.0859375L5.94531 11.6433L16.9129 10.987" fill="#0095D2"/>
<path d="M16.9124 10.9877L11.833 0.0859375L22.1496 0.161352" fill="#00B4F6"/>
<path d="M27.1013 11.7974L16.9131 10.8943L22.1495 0.160156" fill="#0095D3"/>
<path d="M27.1003 11.7977L16.9121 10.8945L21.0562 21.8662" fill="#0079B5"/>
<path d="M26.8498 33.9113L22.0996 22.2617L32.649 22.9332" fill="#004A80"/>
<path d="M22.1515 22.1719L15.8633 33.2132L26.8957 33.9155" fill="#003368"/>
<path d="M22.0781 22.262L32.6502 22.9349L28.0608 11.6641L22.0781 22.262Z" fill="#00619F"/>
<path d="M39.1329 11.3906L28.042 11.6074L32.4705 23.2364" fill="#0079B5"/>
<path d="M28.1299 11.6677L39.0368 11.4392L34.7514 0.464844L28.1299 11.6677Z" fill="#0094D2"/>
<path d="M34.6582 0.460938L39.0239 11.6251L44.9552 1.11629L34.6582 0.460938Z" fill="#00B2F3"/>
</g>
</svg>
