<svg width="2147" height="75" viewBox="0 0 2147 75" fill="none" xmlns="http://www.w3.org/2000/svg">
<mask id="mask0_5_1169" style="mask-type:luminance" maskUnits="userSpaceOnUse" x="1764" y="2" width="70" height="70">
<path d="M1764.16 2.48975H1833.19V71.5262H1764.16V2.48975Z" fill="white"/>
</mask>
<g mask="url(#mask0_5_1169)">
<mask id="mask1_5_1169" style="mask-type:luminance" maskUnits="userSpaceOnUse" x="1764" y="2" width="70" height="70">
<path d="M1798.68 2.48975C1779.61 2.48975 1764.16 17.9481 1764.16 37.0106C1764.16 56.0731 1779.61 71.5262 1798.68 71.5262C1817.74 71.5262 1833.19 56.0731 1833.19 37.0106C1833.19 17.9481 1817.74 2.48975 1798.68 2.48975Z" fill="white"/>
</mask>
<g mask="url(#mask1_5_1169)">
<mask id="mask2_5_1169" style="mask-type:luminance" maskUnits="userSpaceOnUse" x="1763" y="2" width="71" height="70">
<path d="M1833.67 2.2085H1763V71.5418H1833.67V2.2085Z" fill="white"/>
</mask>
<g mask="url(#mask2_5_1169)">
<mask id="mask3_5_1169" style="mask-type:luminance" maskUnits="userSpaceOnUse" x="1764" y="2" width="70" height="70">
<path d="M1764.16 2.48975H1833.19V71.5262H1764.16V2.48975Z" fill="white"/>
</mask>
<g mask="url(#mask3_5_1169)">
<mask id="mask4_5_1169" style="mask-type:luminance" maskUnits="userSpaceOnUse" x="1764" y="2" width="70" height="70">
<path d="M1798.68 2.48975C1779.61 2.48975 1764.16 17.9481 1764.16 37.0106C1764.16 56.0731 1779.61 71.5262 1798.68 71.5262C1817.74 71.5262 1833.19 56.0731 1833.19 37.0106C1833.19 17.9481 1817.74 2.48975 1798.68 2.48975Z" fill="white"/>
</mask>
<g mask="url(#mask4_5_1169)">
<path d="M1764.16 2.48975H1833.19V71.5262H1764.16V2.48975Z" fill="#202E7E"/>
</g>
</g>
</g>
</g>
</g>
<mask id="mask5_5_1169" style="mask-type:luminance" maskUnits="userSpaceOnUse" x="1780" y="18" width="38" height="38">
<path d="M1780.09 18.417H1817.09V55.417H1780.09V18.417Z" fill="white"/>
</mask>
<g mask="url(#mask5_5_1169)">
<path d="M1787.57 34.516C1790.55 40.3597 1795.33 45.141 1801.18 48.1149L1805.72 43.5628C1806.29 42.9951 1807.11 42.8285 1807.82 43.0524C1810.14 43.818 1812.62 44.2295 1815.19 44.2295C1816.34 44.2295 1817.26 45.1514 1817.26 46.2972V53.5264C1817.26 54.6722 1816.34 55.5889 1815.19 55.5889C1795.8 55.5889 1780.09 39.8753 1780.09 20.4847C1780.09 19.3389 1781.02 18.417 1782.15 18.417H1789.38C1790.53 18.417 1791.44 19.3389 1791.44 20.4847C1791.44 23.0524 1791.86 25.542 1792.62 27.8545C1792.85 28.568 1792.68 29.3857 1792.11 29.9535L1787.57 34.516Z" fill="white"/>
</g>
<mask id="mask6_5_1169" style="mask-type:luminance" maskUnits="userSpaceOnUse" x="1845" y="6" width="303" height="59">
<path d="M2147.01 6.2085H1845.67V64.8752H2147.01V6.2085Z" fill="white"/>
</mask>
<g mask="url(#mask6_5_1169)">
<path d="M1858.85 35.4447H1867V38.1738H1858.85V46.5905H1856.1V38.1738H1848.02V35.4447H1856.1V26.9863H1858.85V35.4447Z" fill="#032854"/>
<path d="M1889.22 34.5075C1889.22 45.8148 1884.85 51.4658 1876.1 51.4658C1874.56 51.4658 1873.36 51.3304 1872.47 51.07V48.2367C1873.52 48.5856 1874.73 48.7575 1876.07 48.7575C1879.23 48.7575 1881.61 47.7783 1883.22 45.82C1884.83 43.8617 1885.71 40.8617 1885.87 36.82H1885.64C1884.9 37.9189 1883.93 38.7575 1882.74 39.3408C1881.54 39.9137 1880.2 40.195 1878.7 40.195C1876.14 40.195 1874.12 39.4346 1872.62 37.9033C1871.12 36.3773 1870.37 34.2367 1870.37 31.4867C1870.37 28.4867 1871.2 26.1221 1872.87 24.3825C1874.54 22.6481 1876.76 21.7783 1879.51 21.7783C1881.47 21.7783 1883.18 22.2887 1884.64 23.2992C1886.11 24.2992 1887.24 25.7679 1888.03 27.695C1888.82 29.6273 1889.22 31.8981 1889.22 34.5075ZM1879.51 24.57C1877.62 24.57 1876.16 25.1846 1875.14 26.4033C1874.11 27.6117 1873.6 29.2939 1873.6 31.445C1873.6 33.3512 1874.06 34.8408 1875.01 35.9242C1875.97 37.0075 1877.41 37.5492 1879.35 37.5492C1880.54 37.5492 1881.64 37.3096 1882.64 36.82C1883.65 36.3356 1884.45 35.6742 1885.03 34.8408C1885.62 33.9971 1885.91 33.1064 1885.91 32.1742C1885.91 30.7992 1885.64 29.5283 1885.1 28.3617C1884.55 27.1846 1883.79 26.2575 1882.82 25.5908C1881.87 24.9137 1880.76 24.57 1879.51 24.57Z" fill="#032854"/>
<path d="M1904.69 51.0698H1901.48V30.4865C1901.48 28.7782 1901.53 27.1636 1901.65 25.6323C1901.37 25.9136 1901.06 26.2052 1900.71 26.5073C1900.38 26.799 1898.82 28.0802 1896.02 30.3407L1894.27 28.0907L1901.92 22.1948H1904.69V51.0698Z" fill="#032854"/>
<path d="M1943.57 34.5075C1943.57 45.8148 1939.19 51.4658 1930.44 51.4658C1928.91 51.4658 1927.7 51.3304 1926.82 51.07V48.2367C1927.87 48.5856 1929.07 48.7575 1930.42 48.7575C1933.57 48.7575 1935.95 47.7783 1937.57 45.82C1939.18 43.8617 1940.06 40.8617 1940.21 36.82H1939.98C1939.24 37.9189 1938.28 38.7575 1937.09 39.3408C1935.89 39.9137 1934.55 40.195 1933.05 40.195C1930.49 40.195 1928.46 39.4346 1926.96 37.9033C1925.46 36.3773 1924.71 34.2367 1924.71 31.4867C1924.71 28.4867 1925.55 26.1221 1927.21 24.3825C1928.89 22.6481 1931.11 21.7783 1933.86 21.7783C1935.82 21.7783 1937.53 22.2887 1938.98 23.2992C1940.45 24.2992 1941.59 25.7679 1942.38 27.695C1943.17 29.6273 1943.57 31.8981 1943.57 34.5075ZM1933.86 24.57C1931.97 24.57 1930.51 25.1846 1929.48 26.4033C1928.45 27.6117 1927.94 29.2939 1927.94 31.445C1927.94 33.3512 1928.41 34.8408 1929.36 35.9242C1930.32 37.0075 1931.76 37.5492 1933.69 37.5492C1934.88 37.5492 1935.98 37.3096 1936.98 36.82C1937.99 36.3356 1938.8 35.6742 1939.38 34.8408C1939.96 33.9971 1940.25 33.1064 1940.25 32.1742C1940.25 30.7992 1939.98 29.5283 1939.44 28.3617C1938.9 27.1846 1938.14 26.2575 1937.17 25.5908C1936.21 24.9137 1935.11 24.57 1933.86 24.57Z" fill="#032854"/>
<path d="M1965.87 34.5075C1965.87 45.8148 1961.5 51.4658 1952.75 51.4658C1951.21 51.4658 1950.01 51.3304 1949.12 51.07V48.2367C1950.17 48.5856 1951.38 48.7575 1952.72 48.7575C1955.88 48.7575 1958.26 47.7783 1959.87 45.82C1961.48 43.8617 1962.36 40.8617 1962.52 36.82H1962.29C1961.55 37.9189 1960.58 38.7575 1959.39 39.3408C1958.19 39.9137 1956.85 40.195 1955.35 40.195C1952.79 40.195 1950.77 39.4346 1949.27 37.9033C1947.77 36.3773 1947.02 34.2367 1947.02 31.4867C1947.02 28.4867 1947.85 26.1221 1949.52 24.3825C1951.19 22.6481 1953.41 21.7783 1956.16 21.7783C1958.12 21.7783 1959.83 22.2887 1961.29 23.2992C1962.76 24.2992 1963.89 25.7679 1964.68 27.695C1965.47 29.6273 1965.87 31.8981 1965.87 34.5075ZM1956.16 24.57C1954.27 24.57 1952.81 25.1846 1951.79 26.4033C1950.76 27.6117 1950.25 29.2939 1950.25 31.445C1950.25 33.3512 1950.71 34.8408 1951.66 35.9242C1952.62 37.0075 1954.06 37.5492 1956 37.5492C1957.19 37.5492 1958.29 37.3096 1959.29 36.82C1960.3 36.3356 1961.1 35.6742 1961.68 34.8408C1962.27 33.9971 1962.56 33.1064 1962.56 32.1742C1962.56 30.7992 1962.29 29.5283 1961.75 28.3617C1961.2 27.1846 1960.44 26.2575 1959.47 25.5908C1958.52 24.9137 1957.41 24.57 1956.16 24.57Z" fill="#032854"/>
<path d="M1988.17 34.5075C1988.17 45.8148 1983.8 51.4658 1975.05 51.4658C1973.52 51.4658 1972.31 51.3304 1971.42 51.07V48.2367C1972.48 48.5856 1973.68 48.7575 1975.03 48.7575C1978.18 48.7575 1980.56 47.7783 1982.17 45.82C1983.78 43.8617 1984.66 40.8617 1984.82 36.82H1984.59C1983.85 37.9189 1982.89 38.7575 1981.7 39.3408C1980.5 39.9137 1979.15 40.195 1977.65 40.195C1975.1 40.195 1973.07 39.4346 1971.57 37.9033C1970.07 36.3773 1969.32 34.2367 1969.32 31.4867C1969.32 28.4867 1970.15 26.1221 1971.82 24.3825C1973.5 22.6481 1975.72 21.7783 1978.47 21.7783C1980.42 21.7783 1982.13 22.2887 1983.59 23.2992C1985.06 24.2992 1986.2 25.7679 1986.99 27.695C1987.78 29.6273 1988.17 31.8981 1988.17 34.5075ZM1978.47 24.57C1976.58 24.57 1975.12 25.1846 1974.09 26.4033C1973.06 27.6117 1972.55 29.2939 1972.55 31.445C1972.55 33.3512 1973.02 34.8408 1973.97 35.9242C1974.92 37.0075 1976.37 37.5492 1978.3 37.5492C1979.49 37.5492 1980.59 37.3096 1981.59 36.82C1982.6 36.3356 1983.4 35.6742 1983.99 34.8408C1984.57 33.9971 1984.86 33.1064 1984.86 32.1742C1984.86 30.7992 1984.59 29.5283 1984.05 28.3617C1983.51 27.1846 1982.75 26.2575 1981.78 25.5908C1980.82 24.9137 1979.72 24.57 1978.47 24.57Z" fill="#032854"/>
<path d="M2011.85 44.4242H2007.56V51.07H2004.42V44.4242H1990.38V41.57L2004.08 22.0283H2007.56V41.445H2011.85V44.4242ZM2004.42 41.445V31.8408C2004.42 29.9658 2004.48 27.8408 2004.6 25.4658H2004.46C2003.82 26.7314 2003.23 27.7783 2002.69 28.6117L1993.65 41.445H2004.42Z" fill="#032854"/>
<path d="M2017.45 51.0698L2029.43 25.2157H2013.68V22.1948H2032.91V24.8198L2021.1 51.0698H2017.45Z" fill="#032854"/>
<path d="M2048.25 51.0698H2045.05V30.4865C2045.05 28.7782 2045.1 27.1636 2045.21 25.6323C2044.93 25.9136 2044.62 26.2052 2044.27 26.5073C2043.94 26.799 2042.38 28.0802 2039.59 30.3407L2037.84 28.0907L2045.48 22.1948H2048.25V51.0698Z" fill="#032854"/>
<path d="M2067.43 33.424C2070.47 33.424 2072.86 34.1844 2074.6 35.6948C2076.35 37.1948 2077.22 39.2573 2077.22 41.8823C2077.22 44.8719 2076.27 47.2157 2074.37 48.924C2072.46 50.6219 2069.85 51.4657 2066.52 51.4657C2063.25 51.4657 2060.77 50.9448 2059.06 49.9032V46.7365C2059.97 47.3355 2061.12 47.799 2062.5 48.1323C2063.87 48.4657 2065.22 48.6323 2066.56 48.6323C2068.86 48.6323 2070.65 48.0907 2071.93 47.0073C2073.22 45.9136 2073.87 44.3302 2073.87 42.2573C2073.87 38.2313 2071.4 36.2157 2066.47 36.2157C2065.22 36.2157 2063.55 36.4032 2061.45 36.7782L2059.75 35.6948L2060.83 22.1948H2075.2V25.2157H2063.64L2062.91 33.8823C2064.42 33.5802 2065.93 33.424 2067.43 33.424Z" fill="#032854"/>
<path d="M2092.86 51.0698H2089.65V30.4865C2089.65 28.7782 2089.71 27.1636 2089.82 25.6323C2089.54 25.9136 2089.23 26.2052 2088.88 26.5073C2088.55 26.799 2086.99 28.0802 2084.19 30.3407L2082.44 28.0907L2090.09 22.1948H2092.86V51.0698Z" fill="#032854"/>
<path d="M2122.17 36.5905C2122.17 41.5801 2121.37 45.3092 2119.79 47.778C2118.22 50.2363 2115.82 51.4655 2112.58 51.4655C2109.47 51.4655 2107.1 50.2103 2105.48 47.6947C2103.86 45.1686 2103.06 41.4655 2103.06 36.5905C2103.06 31.5645 2103.84 27.8353 2105.39 25.403C2106.96 22.9603 2109.36 21.7363 2112.58 21.7363C2115.71 21.7363 2118.08 23.0072 2119.71 25.5488C2121.34 28.0905 2122.17 31.7728 2122.17 36.5905ZM2106.37 36.5905C2106.37 40.7884 2106.86 43.8405 2107.85 45.7572C2108.84 47.6738 2110.42 48.6322 2112.58 48.6322C2114.76 48.6322 2116.34 47.6686 2117.31 45.7363C2118.3 43.7936 2118.79 40.7467 2118.79 36.5905C2118.79 32.4395 2118.3 29.3978 2117.31 27.4655C2116.34 25.5384 2114.76 24.5697 2112.58 24.5697C2110.42 24.5697 2108.84 25.5228 2107.85 27.4238C2106.86 29.3301 2106.37 32.3822 2106.37 36.5905Z" fill="#032854"/>
<path d="M2125.66 38.7158C2125.66 33.0492 2126.76 28.8148 2128.97 26.0075C2131.18 23.1898 2134.44 21.7783 2138.76 21.7783C2140.25 21.7783 2141.41 21.9033 2142.26 22.1533V24.9658C2141.25 24.6481 2140.09 24.4867 2138.8 24.4867C2135.7 24.4867 2133.33 25.4554 2131.7 27.3825C2130.07 29.3148 2129.18 32.3408 2129.01 36.4658H2129.26C2130.7 34.2054 2133 33.07 2136.14 33.07C2138.72 33.07 2140.76 33.8564 2142.26 35.4242C2143.76 36.9971 2144.51 39.1221 2144.51 41.7992C2144.51 44.7992 2143.68 47.1637 2142.03 48.8825C2140.39 50.6064 2138.18 51.4658 2135.39 51.4658C2132.4 51.4658 2130.03 50.3512 2128.28 48.1117C2126.53 45.8617 2125.66 42.7314 2125.66 38.7158ZM2135.37 48.6742C2137.22 48.6742 2138.67 48.0908 2139.7 46.9242C2140.74 45.7471 2141.26 44.0387 2141.26 41.7992C2141.26 39.8981 2140.78 38.3981 2139.82 37.2992C2138.87 36.2054 2137.43 35.6533 2135.51 35.6533C2134.33 35.6533 2133.25 35.9033 2132.26 36.4033C2131.27 36.8929 2130.48 37.5648 2129.89 38.4242C2129.3 39.2731 2129.01 40.1533 2129.01 41.07C2129.01 42.4346 2129.27 43.7054 2129.8 44.8825C2130.33 46.0492 2131.07 46.9762 2132.03 47.6533C2133 48.3356 2134.12 48.6742 2135.37 48.6742Z" fill="#032854"/>
</g>
<mask id="mask7_5_1169" style="mask-type:luminance" maskUnits="userSpaceOnUse" x="800" y="0" width="75" height="75">
<path d="M800.021 0H874.042V74.0208H800.021V0Z" fill="white"/>
</mask>
<g mask="url(#mask7_5_1169)">
<mask id="mask8_5_1169" style="mask-type:luminance" maskUnits="userSpaceOnUse" x="800" y="0" width="75" height="75">
<path d="M837.031 0C816.594 0 800.021 16.5677 800.021 37.0104C800.021 57.4479 816.594 74.0208 837.031 74.0208C857.469 74.0208 874.042 57.4479 874.042 37.0104C874.042 16.5677 857.469 0 837.031 0Z" fill="white"/>
</mask>
<g mask="url(#mask8_5_1169)">
<mask id="mask9_5_1169" style="mask-type:luminance" maskUnits="userSpaceOnUse" x="799" y="-1" width="77" height="76">
<path d="M875.005 -0.458008H799.005V74.2087H875.005V-0.458008Z" fill="white"/>
</mask>
<g mask="url(#mask9_5_1169)">
<mask id="mask10_5_1169" style="mask-type:luminance" maskUnits="userSpaceOnUse" x="800" y="0" width="75" height="75">
<path d="M800.021 0H874.042V74.0208H800.021V0Z" fill="white"/>
</mask>
<g mask="url(#mask10_5_1169)">
<mask id="mask11_5_1169" style="mask-type:luminance" maskUnits="userSpaceOnUse" x="800" y="0" width="75" height="75">
<path d="M837.031 0C816.594 0 800.021 16.5677 800.021 37.0104C800.021 57.4479 816.594 74.0208 837.031 74.0208C857.469 74.0208 874.042 57.4479 874.042 37.0104C874.042 16.5677 857.469 0 837.031 0Z" fill="white"/>
</mask>
<g mask="url(#mask11_5_1169)">
<path d="M800.021 0H874.042V74.0208H800.021V0Z" fill="#202E7E"/>
</g>
</g>
</g>
</g>
</g>
<mask id="mask12_5_1169" style="mask-type:luminance" maskUnits="userSpaceOnUse" x="815" y="20" width="45" height="20">
<path d="M815.005 20.7969H859.005V39.5417H815.005V20.7969Z" fill="white"/>
</mask>
<g mask="url(#mask12_5_1169)">
<path d="M834.062 37.5312C834.484 37.8594 834.953 38.1094 835.464 38.2812C835.969 38.4531 836.49 38.5417 837.026 38.5417C837.563 38.5417 838.089 38.4531 838.594 38.2812C839.104 38.1094 839.568 37.8594 839.995 37.5312L858.823 22.8646C858.37 22.2187 857.792 21.7083 857.089 21.3438C856.391 20.9792 855.646 20.7969 854.854 20.7969H819.208C818.37 20.8021 817.583 21.0052 816.854 21.4167C816.12 21.8229 815.536 22.3854 815.094 23.099L834.062 37.5312Z" fill="white"/>
</g>
<mask id="mask13_5_1169" style="mask-type:luminance" maskUnits="userSpaceOnUse" x="814" y="26" width="46" height="27">
<path d="M814.318 26.2085H859.318V52.797H814.318V26.2085Z" fill="white"/>
</mask>
<g mask="url(#mask13_5_1169)">
<path d="M841.979 40.1042C841.271 40.6458 840.495 41.0625 839.646 41.349C838.802 41.6354 837.932 41.7812 837.036 41.7812C836.146 41.7812 835.276 41.6354 834.427 41.349C833.583 41.0625 832.802 40.6458 832.094 40.1042L814.349 26.6042V48.3438C814.349 48.9896 814.469 49.6094 814.719 50.2031C814.963 50.8021 815.312 51.3281 815.771 51.7812C816.224 52.2396 816.75 52.5885 817.349 52.8333C817.943 53.0833 818.562 53.2031 819.208 53.2031H854.854C855.5 53.2031 856.12 53.0833 856.713 52.8333C857.312 52.5885 857.833 52.2396 858.292 51.7812C858.75 51.3281 859.099 50.8021 859.344 50.2031C859.594 49.6094 859.713 48.9896 859.713 48.3438V26.2812L841.979 40.1042Z" fill="white"/>
</g>
<mask id="mask14_5_1169" style="mask-type:luminance" maskUnits="userSpaceOnUse" x="885" y="2" width="547" height="58">
<path d="M1431.01 2.2085H885.672V59.5418H1431.01V2.2085Z" fill="white"/>
</mask>
<g mask="url(#mask14_5_1169)">
<mask id="mask15_5_1169" style="mask-type:luminance" maskUnits="userSpaceOnUse" x="886" y="24" width="22" height="33">
<path d="M886.526 24.875H907.005V56.875H886.526V24.875Z" fill="white"/>
</mask>
<g mask="url(#mask15_5_1169)">
<path d="M886.581 25.0493H890.101L894.831 37.3827C895.872 40.2056 896.518 42.2368 896.768 43.4868H896.935C897.101 42.8202 897.456 41.6743 897.997 40.0493C898.549 38.4243 900.341 33.4243 903.372 25.0493H906.893L897.581 49.6952C896.664 52.1379 895.586 53.867 894.351 54.8827C893.112 55.9087 891.601 56.4243 889.81 56.4243C888.81 56.4243 887.82 56.3045 886.851 56.0702V53.4452C887.57 53.6118 888.383 53.6952 889.289 53.6952C891.539 53.6952 893.143 52.4295 894.101 49.9035L895.31 46.8202L886.581 25.0493Z" fill="#032854"/>
</g>
<path d="M912.662 25.0498V39.0915C912.662 40.8571 913.063 42.1748 913.87 43.0498C914.672 43.9144 915.932 44.3415 917.641 44.3415C919.901 44.3415 921.557 43.7269 922.599 42.4873C923.651 41.2529 924.182 39.2321 924.182 36.4248V25.0498H927.453V46.6956H924.745L924.266 43.7998H924.099C923.417 44.8571 922.479 45.6696 921.287 46.2373C920.104 46.805 918.75 47.0915 917.224 47.0915C914.583 47.0915 912.61 46.4665 911.307 45.2165C910 43.9665 909.349 41.9665 909.349 39.2165V25.0498H912.662Z" fill="#032854"/>
<path d="M938.309 46.6956L930.101 25.0498H933.621L938.288 37.8831C939.33 40.8831 939.944 42.8363 940.142 43.7373H940.288C940.439 43.0446 940.897 41.6019 941.663 39.404C942.439 37.2113 944.168 32.4248 946.851 25.0498H950.371L942.142 46.6956H938.309Z" fill="#032854"/>
<path d="M966.334 46.6953L965.688 43.612H965.522C964.438 44.9766 963.36 45.8984 962.293 46.3828C961.22 46.8516 959.881 47.0911 958.272 47.0911C956.131 47.0911 954.449 46.5443 953.23 45.4453C952.006 44.3359 951.397 42.7578 951.397 40.7161C951.397 36.3411 954.897 34.0495 961.897 33.8411L965.563 33.7161V32.3828C965.563 30.6745 965.194 29.4193 964.459 28.612C963.735 27.8099 962.569 27.4036 960.959 27.4036C959.152 27.4036 957.11 27.9557 954.834 29.0495L953.834 26.5495C954.902 25.9661 956.069 25.5182 957.334 25.1953C958.61 24.862 959.886 24.6953 961.168 24.6953C963.735 24.6953 965.647 25.2734 966.897 26.4245C968.147 27.5651 968.772 29.3984 968.772 31.9245V46.6953H966.334ZM958.918 44.3828C960.959 44.3828 962.563 43.8307 963.73 42.7161C964.897 41.5911 965.48 40.0234 965.48 38.0078V36.0495L962.209 36.1953C959.595 36.2786 957.714 36.6849 956.563 37.4036C955.407 38.1276 954.834 39.2474 954.834 40.7578C954.834 41.9401 955.188 42.8411 955.897 43.4661C956.615 44.0807 957.626 44.3828 958.918 44.3828Z" fill="#032854"/>
<path d="M984.569 24.6533C985.527 24.6533 986.387 24.7314 987.152 24.8825L986.694 27.9242C985.803 27.7314 985.017 27.6325 984.34 27.6325C982.59 27.6325 981.09 28.3512 979.84 29.7783C978.59 31.195 977.965 32.9606 977.965 35.07V46.695H974.694V25.0492H977.402L977.777 29.0492H977.923C978.725 27.6481 979.694 26.5648 980.819 25.7992C981.955 25.0387 983.205 24.6533 984.569 24.6533Z" fill="#032854"/>
<path d="M1003.7 46.6953L1003.05 43.612H1002.89C1001.8 44.9766 1000.72 45.8984 999.657 46.3828C998.584 46.8516 997.245 47.0911 995.636 47.0911C993.495 47.0911 991.813 46.5443 990.594 45.4453C989.37 44.3359 988.761 42.7578 988.761 40.7161C988.761 36.3411 992.261 34.0495 999.261 33.8411L1002.93 33.7161V32.3828C1002.93 30.6745 1002.56 29.4193 1001.82 28.612C1001.1 27.8099 999.933 27.4036 998.323 27.4036C996.516 27.4036 994.474 27.9557 992.198 29.0495L991.198 26.5495C992.266 25.9661 993.433 25.5182 994.698 25.1953C995.974 24.862 997.25 24.6953 998.532 24.6953C1001.1 24.6953 1003.01 25.2734 1004.26 26.4245C1005.51 27.5651 1006.14 29.3984 1006.14 31.9245V46.6953H1003.7ZM996.282 44.3828C998.323 44.3828 999.927 43.8307 1001.09 42.7161C1002.26 41.5911 1002.84 40.0234 1002.84 38.0078V36.0495L999.573 36.1953C996.959 36.2786 995.078 36.6849 993.927 37.4036C992.771 38.1276 992.198 39.2474 992.198 40.7578C992.198 41.9401 992.552 42.8411 993.261 43.4661C993.979 44.0807 994.99 44.3828 996.282 44.3828Z" fill="#032854"/>
<path d="M1009.43 56.4245C1008.18 56.4245 1007.17 56.2578 1006.39 55.9245V53.2578C1007.3 53.5182 1008.19 53.6536 1009.08 53.6536C1010.1 53.6536 1010.85 53.3672 1011.33 52.7995C1011.81 52.2422 1012.06 51.3932 1012.06 50.2578V25.0495H1015.33V50.0078C1015.33 54.2839 1013.36 56.4245 1009.43 56.4245ZM1011.79 19.1745C1011.79 18.4245 1011.96 17.8776 1012.33 17.5286C1012.7 17.1849 1013.17 17.0078 1013.72 17.0078C1014.24 17.0078 1014.68 17.1901 1015.06 17.5495C1015.44 17.8984 1015.64 18.4401 1015.64 19.1745C1015.64 19.9141 1015.44 20.4609 1015.06 20.8203C1014.68 21.1849 1014.24 21.362 1013.72 21.362C1013.17 21.362 1012.7 21.1849 1012.33 20.8203C1011.96 20.4609 1011.79 19.9141 1011.79 19.1745Z" fill="#032854"/>
<path d="M1051.97 32.2998C1051.97 34.1644 1051.68 35.8727 1051.1 37.4248C1050.52 38.9821 1049.71 40.1904 1048.66 41.0498C1047.6 41.8988 1046.39 42.3206 1045.01 42.3206C1043.89 42.3206 1042.94 41.9821 1042.16 41.2998C1041.38 40.6227 1040.92 39.7477 1040.76 38.6748H1040.62C1040.09 39.8311 1039.33 40.7269 1038.35 41.3623C1037.37 42.0029 1036.21 42.3206 1034.87 42.3206C1032.89 42.3206 1031.35 41.6488 1030.22 40.2998C1029.11 38.9561 1028.56 37.1227 1028.56 34.7998C1028.56 32.1227 1029.33 29.9404 1030.89 28.2581C1032.44 26.5811 1034.48 25.7373 1037.01 25.7373C1037.92 25.7373 1038.93 25.8206 1040.06 25.9873C1041.19 26.154 1042.21 26.3779 1043.12 26.654L1042.62 35.9456V36.3831C1042.62 38.7321 1043.5 39.904 1045.26 39.904C1046.46 39.904 1047.43 39.1956 1048.18 37.779C1048.93 36.3623 1049.31 34.5238 1049.31 32.2581C1049.31 29.8727 1048.82 27.779 1047.85 25.9873C1046.87 24.1956 1045.48 22.8206 1043.68 21.8623C1041.89 20.8936 1039.83 20.404 1037.49 20.404C1034.55 20.404 1031.99 21.0186 1029.83 22.2373C1027.66 23.4456 1026 25.1852 1024.85 27.4456C1023.71 29.7113 1023.14 32.3206 1023.14 35.279C1023.14 39.2946 1024.19 42.3831 1026.31 44.5498C1028.43 46.7008 1031.48 47.779 1035.47 47.779C1038.23 47.779 1041.11 47.2165 1044.1 46.0915V48.7165C1041.57 49.8102 1038.69 50.3623 1035.47 50.3623C1030.69 50.3623 1026.98 49.0498 1024.35 46.4248C1021.71 43.7998 1020.39 40.1331 1020.39 35.4248C1020.39 31.9977 1021.09 28.9456 1022.49 26.279C1023.91 23.6019 1025.92 21.529 1028.51 20.0706C1031.12 18.6019 1034.12 17.8623 1037.49 17.8623C1040.33 17.8623 1042.84 18.4613 1045.04 19.654C1047.24 20.8363 1048.95 22.5238 1050.16 24.7165C1051.37 26.9144 1051.97 29.4404 1051.97 32.2998ZM1031.54 34.8831C1031.54 38.2321 1032.82 39.904 1035.39 39.904C1038.12 39.904 1039.61 37.8415 1039.85 33.7165L1040.12 28.5706C1039.17 28.3102 1038.14 28.1748 1037.01 28.1748C1035.31 28.1748 1033.96 28.7686 1032.99 29.9456C1032.02 31.1279 1031.54 32.7738 1031.54 34.8831Z" fill="#032854"/>
<path d="M1070.31 46.6953L1069.67 43.612H1069.5C1068.42 44.9766 1067.34 45.8984 1066.27 46.3828C1065.2 46.8516 1063.86 47.0911 1062.25 47.0911C1060.11 47.0911 1058.43 46.5443 1057.21 45.4453C1055.99 44.3359 1055.38 42.7578 1055.38 40.7161C1055.38 36.3411 1058.88 34.0495 1065.88 33.8411L1069.54 33.7161V32.3828C1069.54 30.6745 1069.17 29.4193 1068.44 28.612C1067.72 27.8099 1066.55 27.4036 1064.94 27.4036C1063.13 27.4036 1061.09 27.9557 1058.81 29.0495L1057.81 26.5495C1058.88 25.9661 1060.05 25.5182 1061.31 25.1953C1062.59 24.862 1063.87 24.6953 1065.15 24.6953C1067.72 24.6953 1069.63 25.2734 1070.88 26.4245C1072.13 27.5651 1072.75 29.3984 1072.75 31.9245V46.6953H1070.31ZM1062.9 44.3828C1064.94 44.3828 1066.54 43.8307 1067.71 42.7161C1068.88 41.5911 1069.46 40.0234 1069.46 38.0078V36.0495L1066.19 36.1953C1063.57 36.2786 1061.69 36.6849 1060.54 37.4036C1059.39 38.1276 1058.81 39.2474 1058.81 40.7578C1058.81 41.9401 1059.17 42.8411 1059.88 43.4661C1060.6 44.0807 1061.61 44.3828 1062.9 44.3828Z" fill="#032854"/>
<path d="M1088.55 24.6533C1089.51 24.6533 1090.37 24.7314 1091.13 24.8825L1090.67 27.9242C1089.78 27.7314 1089 27.6325 1088.32 27.6325C1086.57 27.6325 1085.07 28.3512 1083.82 29.7783C1082.57 31.195 1081.94 32.9606 1081.94 35.07V46.695H1078.67V25.0492H1081.38L1081.76 29.0492H1081.9C1082.71 27.6481 1083.67 26.5648 1084.8 25.7992C1085.93 25.0387 1087.18 24.6533 1088.55 24.6533Z" fill="#032854"/>
<path d="M1090.93 25.0498H1094.45L1099.18 37.3831C1100.22 40.2061 1100.87 42.2373 1101.12 43.4873H1101.28C1101.45 42.8206 1101.8 41.6748 1102.34 40.0498C1102.9 38.4248 1104.69 33.4248 1107.72 25.0498H1111.24L1101.93 49.6956C1101.01 52.1383 1099.93 53.8675 1098.7 54.8831C1097.46 55.9092 1095.95 56.4248 1094.16 56.4248C1093.16 56.4248 1092.17 56.305 1091.2 56.0706V53.4456C1091.92 53.6123 1092.73 53.6956 1093.64 53.6956C1095.89 53.6956 1097.49 52.43 1098.45 49.904L1099.66 46.8206L1090.93 25.0498Z" fill="#032854"/>
<path d="M1117.01 25.0498V39.0915C1117.01 40.8571 1117.41 42.1748 1118.22 43.0498C1119.02 43.9144 1120.28 44.3415 1121.99 44.3415C1124.25 44.3415 1125.9 43.7269 1126.95 42.4873C1128 41.2529 1128.53 39.2321 1128.53 36.4248V25.0498H1131.8V46.6956H1129.09L1128.61 43.7998H1128.45C1127.76 44.8571 1126.83 45.6696 1125.63 46.2373C1124.45 46.805 1123.1 47.0915 1121.57 47.0915C1118.93 47.0915 1116.96 46.4665 1115.65 45.2165C1114.35 43.9665 1113.7 41.9665 1113.7 39.2165V25.0498H1117.01Z" fill="#032854"/>
<path d="M1147.07 47.0908C1143.88 47.0908 1141.35 46.1221 1139.49 44.1742C1137.64 42.2158 1136.72 39.5075 1136.72 36.0492C1136.72 32.5648 1137.58 29.7939 1139.3 27.7367C1141.02 25.6846 1143.33 24.6533 1146.22 24.6533C1148.93 24.6533 1151.07 25.5492 1152.66 27.3408C1154.24 29.1221 1155.03 31.4658 1155.03 34.3825V36.4658H1140.11C1140.18 39.0075 1140.82 40.9398 1142.03 42.2575C1143.25 43.5648 1144.97 44.2158 1147.2 44.2158C1149.52 44.2158 1151.82 43.7314 1154.11 42.7575V45.695C1152.95 46.195 1151.84 46.5492 1150.8 46.7575C1149.77 46.9762 1148.53 47.0908 1147.07 47.0908ZM1146.18 27.4033C1144.44 27.4033 1143.05 27.9762 1142.01 29.1117C1140.98 30.2367 1140.38 31.7992 1140.2 33.7992H1151.51C1151.51 31.7314 1151.05 30.1481 1150.14 29.0492C1149.22 27.9554 1147.9 27.4033 1146.18 27.4033Z" fill="#032854"/>
<path d="M1174.61 46.695V32.695C1174.61 30.9346 1174.2 29.6117 1173.4 28.7367C1172.59 27.8617 1171.34 27.4242 1169.63 27.4242C1167.36 27.4242 1165.7 28.0439 1164.65 29.2783C1163.59 30.5023 1163.07 32.5231 1163.07 35.3408V46.695H1159.8V25.0492H1162.46L1163.01 28.0075H1163.15C1163.82 26.9398 1164.76 26.1117 1165.96 25.5283C1167.18 24.945 1168.54 24.6533 1170.03 24.6533C1172.64 24.6533 1174.59 25.2887 1175.9 26.5492C1177.22 27.7992 1177.88 29.8096 1177.88 32.57V46.695H1174.61Z" fill="#032854"/>
<path d="M1190.8 44.3825C1191.37 44.3825 1191.92 44.3408 1192.47 44.2575C1193.01 44.1742 1193.43 44.0856 1193.76 43.9867V46.5075C1193.39 46.6742 1192.87 46.8096 1192.17 46.9242C1191.49 47.0335 1190.87 47.0908 1190.32 47.0908C1186.12 47.0908 1184.03 44.8825 1184.03 40.4658V27.5908H1180.92V26.0075L1184.03 24.6533L1185.42 20.0283H1187.32V25.0492H1193.59V27.5908H1187.32V40.3408C1187.32 41.6481 1187.62 42.6481 1188.24 43.3408C1188.86 44.0387 1189.72 44.3825 1190.8 44.3825Z" fill="#032854"/>
<path d="M1206.41 47.0908C1203.21 47.0908 1200.68 46.1221 1198.82 44.1742C1196.97 42.2158 1196.05 39.5075 1196.05 36.0492C1196.05 32.5648 1196.91 29.7939 1198.63 27.7367C1200.35 25.6846 1202.66 24.6533 1205.55 24.6533C1208.26 24.6533 1210.41 25.5492 1211.99 27.3408C1213.57 29.1221 1214.36 31.4658 1214.36 34.3825V36.4658H1199.45C1199.51 39.0075 1200.16 40.9398 1201.36 42.2575C1202.58 43.5648 1204.31 44.2158 1206.53 44.2158C1208.85 44.2158 1211.16 43.7314 1213.45 42.7575V45.695C1212.28 46.195 1211.18 46.5492 1210.13 46.7575C1209.1 46.9762 1207.86 47.0908 1206.41 47.0908ZM1205.51 27.4033C1203.77 27.4033 1202.38 27.9762 1201.34 29.1117C1200.31 30.2367 1199.71 31.7992 1199.53 33.7992H1210.84C1210.84 31.7314 1210.38 30.1481 1209.47 29.0492C1208.55 27.9554 1207.23 27.4033 1205.51 27.4033Z" fill="#032854"/>
<path d="M1229 24.6533C1229.96 24.6533 1230.82 24.7314 1231.59 24.8825L1231.13 27.9242C1230.24 27.7314 1229.45 27.6325 1228.78 27.6325C1227.03 27.6325 1225.53 28.3512 1224.28 29.7783C1223.03 31.195 1222.4 32.9606 1222.4 35.07V46.695H1219.13V25.0492H1221.84L1222.21 29.0492H1222.36C1223.16 27.6481 1224.13 26.5648 1225.25 25.7992C1226.39 25.0387 1227.64 24.6533 1229 24.6533Z" fill="#032854"/>
<path d="M1244.88 47.0908C1243.48 47.0908 1242.2 46.8304 1241.03 46.32C1239.86 45.7939 1238.88 44.9867 1238.09 43.9033H1237.86C1238.01 45.1689 1238.09 46.3721 1238.09 47.5075V56.4242H1234.82V25.0492H1237.49L1237.95 28.0075H1238.09C1238.94 26.8304 1239.91 25.9762 1241.03 25.445C1242.15 24.9189 1243.44 24.6533 1244.88 24.6533C1247.76 24.6533 1249.97 25.6325 1251.53 27.5908C1253.1 29.5492 1253.88 32.2992 1253.88 35.8408C1253.88 39.3981 1253.08 42.1637 1251.49 44.1325C1249.9 46.1064 1247.7 47.0908 1244.88 47.0908ZM1244.42 27.4242C1242.2 27.4242 1240.6 28.0439 1239.61 29.2783C1238.62 30.5023 1238.12 32.445 1238.09 35.1117V35.8408C1238.09 38.8825 1238.6 41.0648 1239.61 42.3825C1240.62 43.6898 1242.26 44.3408 1244.51 44.3408C1246.37 44.3408 1247.83 43.5856 1248.88 42.07C1249.95 40.5596 1250.49 38.4762 1250.49 35.82C1250.49 33.1117 1249.95 31.0387 1248.88 29.5908C1247.83 28.1481 1246.34 27.4242 1244.42 27.4242Z" fill="#032854"/>
<path d="M1268.66 24.6533C1269.62 24.6533 1270.48 24.7314 1271.24 24.8825L1270.78 27.9242C1269.89 27.7314 1269.11 27.6325 1268.43 27.6325C1266.68 27.6325 1265.18 28.3512 1263.93 29.7783C1262.68 31.195 1262.05 32.9606 1262.05 35.07V46.695H1258.78V25.0492H1261.49L1261.87 29.0492H1262.01C1262.81 27.6481 1263.78 26.5648 1264.91 25.7992C1266.04 25.0387 1267.29 24.6533 1268.66 24.6533Z" fill="#032854"/>
<path d="M1277.75 46.6953H1274.47V25.0495H1277.75V46.6953ZM1274.2 19.1745C1274.2 18.4245 1274.38 17.8776 1274.75 17.5286C1275.12 17.1849 1275.58 17.0078 1276.14 17.0078C1276.65 17.0078 1277.1 17.1901 1277.47 17.5495C1277.86 17.8984 1278.06 18.4401 1278.06 19.1745C1278.06 19.9141 1277.86 20.4609 1277.47 20.8203C1277.1 21.1849 1276.65 21.362 1276.14 21.362C1275.58 21.362 1275.12 21.1849 1274.75 20.8203C1274.38 20.4609 1274.2 19.9141 1274.2 19.1745Z" fill="#032854"/>
<path d="M1297.85 40.7783C1297.85 42.8096 1297.1 44.3721 1295.6 45.4658C1294.1 46.5492 1291.99 47.0908 1289.28 47.0908C1286.41 47.0908 1284.17 46.6429 1282.56 45.7367V42.695C1283.6 43.2106 1284.71 43.6221 1285.91 43.9242C1287.1 44.2314 1288.25 44.3825 1289.37 44.3825C1291.08 44.3825 1292.39 44.1117 1293.31 43.57C1294.23 43.0179 1294.7 42.1846 1294.7 41.07C1294.7 40.2262 1294.33 39.5023 1293.6 38.9033C1292.86 38.3096 1291.44 37.6012 1289.33 36.7783C1287.31 36.0283 1285.87 35.3773 1285.01 34.82C1284.17 34.2523 1283.53 33.6117 1283.12 32.9033C1282.71 32.195 1282.51 31.3512 1282.51 30.3617C1282.51 28.6012 1283.23 27.2106 1284.66 26.195C1286.09 25.1689 1288.06 24.6533 1290.56 24.6533C1292.89 24.6533 1295.17 25.1273 1297.39 26.07L1296.24 28.7367C1294.06 27.8512 1292.09 27.4033 1290.33 27.4033C1288.77 27.4033 1287.6 27.6481 1286.81 28.1325C1286.01 28.6221 1285.62 29.2887 1285.62 30.1325C1285.62 30.7158 1285.76 31.2158 1286.06 31.6325C1286.36 32.0387 1286.84 32.4242 1287.49 32.7992C1288.16 33.1637 1289.42 33.6898 1291.28 34.3825C1293.85 35.3304 1295.59 36.2731 1296.49 37.2158C1297.39 38.1637 1297.85 39.3512 1297.85 40.7783Z" fill="#032854"/>
<path d="M1311.51 47.0908C1308.31 47.0908 1305.79 46.1221 1303.93 44.1742C1302.08 42.2158 1301.16 39.5075 1301.16 36.0492C1301.16 32.5648 1302.02 29.7939 1303.74 27.7367C1305.46 25.6846 1307.77 24.6533 1310.66 24.6533C1313.36 24.6533 1315.51 25.5492 1317.09 27.3408C1318.68 29.1221 1319.47 31.4658 1319.47 34.3825V36.4658H1304.55C1304.62 39.0075 1305.26 40.9398 1306.47 42.2575C1307.69 43.5648 1309.41 44.2158 1311.63 44.2158C1313.95 44.2158 1316.26 43.7314 1318.55 42.7575V45.695C1317.38 46.195 1316.28 46.5492 1315.24 46.7575C1314.21 46.9762 1312.97 47.0908 1311.51 47.0908ZM1310.61 27.4033C1308.87 27.4033 1307.49 27.9762 1306.45 29.1117C1305.42 30.2367 1304.81 31.7992 1304.63 33.7992H1315.95C1315.95 31.7314 1315.49 30.1481 1314.57 29.0492C1313.66 27.9554 1312.33 27.4033 1310.61 27.4033Z" fill="#032854"/>
<path d="M1338.19 40.7783C1338.19 42.8096 1337.44 44.3721 1335.94 45.4658C1334.44 46.5492 1332.34 47.0908 1329.63 47.0908C1326.75 47.0908 1324.51 46.6429 1322.9 45.7367V42.695C1323.94 43.2106 1325.06 43.6221 1326.25 43.9242C1327.45 44.2314 1328.6 44.3825 1329.71 44.3825C1331.42 44.3825 1332.73 44.1117 1333.65 43.57C1334.58 43.0179 1335.05 42.1846 1335.05 41.07C1335.05 40.2262 1334.68 39.5023 1333.94 38.9033C1333.2 38.3096 1331.78 37.6012 1329.67 36.7783C1327.66 36.0283 1326.22 35.3773 1325.36 34.82C1324.51 34.2523 1323.88 33.6117 1323.46 32.9033C1323.06 32.195 1322.86 31.3512 1322.86 30.3617C1322.86 28.6012 1323.57 27.2106 1325 26.195C1326.43 25.1689 1328.4 24.6533 1330.9 24.6533C1333.23 24.6533 1335.51 25.1273 1337.73 26.07L1336.59 28.7367C1334.41 27.8512 1332.43 27.4033 1330.67 27.4033C1329.11 27.4033 1327.94 27.6481 1327.15 28.1325C1326.36 28.6221 1325.96 29.2887 1325.96 30.1325C1325.96 30.7158 1326.11 31.2158 1326.4 31.6325C1326.7 32.0387 1327.18 32.4242 1327.84 32.7992C1328.5 33.1637 1329.77 33.6898 1331.63 34.3825C1334.2 35.3304 1335.93 36.2731 1336.84 37.2158C1337.74 38.1637 1338.19 39.3512 1338.19 40.7783Z" fill="#032854"/>
<path d="M1342.23 44.5915C1342.23 43.7165 1342.43 43.0602 1342.83 42.6123C1343.23 42.154 1343.81 41.9248 1344.56 41.9248C1345.32 41.9248 1345.92 42.154 1346.35 42.6123C1346.78 43.0602 1347 43.7165 1347 44.5915C1347 45.4561 1346.78 46.1123 1346.33 46.5706C1345.9 47.029 1345.31 47.2581 1344.56 47.2581C1343.9 47.2581 1343.34 47.055 1342.9 46.654C1342.45 46.2373 1342.23 45.5498 1342.23 44.5915Z" fill="#032854"/>
<path d="M1361.3 47.0908C1358.18 47.0908 1355.75 46.1273 1354.03 44.195C1352.31 42.2679 1351.45 39.5387 1351.45 36.0075C1351.45 32.3825 1352.31 29.5856 1354.05 27.6117C1355.8 25.6429 1358.29 24.6533 1361.53 24.6533C1362.57 24.6533 1363.6 24.7679 1364.64 24.9867C1365.68 25.2106 1366.49 25.4762 1367.09 25.7783L1366.09 28.57C1365.37 28.2783 1364.58 28.0387 1363.72 27.8408C1362.85 27.6481 1362.1 27.5492 1361.45 27.5492C1357.04 27.5492 1354.84 30.3564 1354.84 35.9658C1354.84 38.6325 1355.37 40.6742 1356.45 42.0908C1357.53 43.5075 1359.12 44.2158 1361.22 44.2158C1363.02 44.2158 1364.87 43.8356 1366.78 43.07V45.9658C1365.33 46.7158 1363.51 47.0908 1361.3 47.0908Z" fill="#032854"/>
<path d="M1389.78 35.8408C1389.78 39.3825 1388.89 42.1481 1387.11 44.1325C1385.33 46.1064 1382.87 47.0908 1379.74 47.0908C1377.8 47.0908 1376.09 46.6429 1374.59 45.7367C1373.09 44.82 1371.93 43.5179 1371.11 41.82C1370.29 40.1117 1369.88 38.1221 1369.88 35.8408C1369.88 32.3148 1370.76 29.57 1372.53 27.6117C1374.29 25.6429 1376.74 24.6533 1379.88 24.6533C1382.91 24.6533 1385.31 25.6637 1387.09 27.6742C1388.88 29.6898 1389.78 32.4137 1389.78 35.8408ZM1373.28 35.8408C1373.28 38.6221 1373.83 40.7314 1374.92 42.1742C1376.03 43.6221 1377.66 44.3408 1379.82 44.3408C1381.97 44.3408 1383.6 43.6221 1384.72 42.1742C1385.83 40.7314 1386.38 38.6221 1386.38 35.8408C1386.38 33.0908 1385.83 31.0023 1384.72 29.57C1383.6 28.1429 1381.96 27.4242 1379.78 27.4242C1377.64 27.4242 1376.02 28.1325 1374.92 29.5492C1373.83 30.9554 1373.28 33.0492 1373.28 35.8408Z" fill="#032854"/>
<path d="M1422.3 46.695V32.6117C1422.3 30.8929 1421.93 29.6012 1421.18 28.7367C1420.44 27.8617 1419.29 27.4242 1417.74 27.4242C1415.71 27.4242 1414.2 28.0179 1413.22 29.195C1412.24 30.3617 1411.76 32.1689 1411.76 34.6117V46.695H1408.49V32.6117C1408.49 30.8929 1408.12 29.6012 1407.39 28.7367C1406.65 27.8617 1405.49 27.4242 1403.93 27.4242C1401.87 27.4242 1400.36 28.0439 1399.41 29.2783C1398.45 30.5179 1397.97 32.5387 1397.97 35.3408V46.695H1394.7V25.0492H1397.36L1397.91 28.0075H1398.05C1398.68 26.9554 1399.55 26.1325 1400.68 25.5492C1401.8 24.9554 1403.06 24.6533 1404.45 24.6533C1407.83 24.6533 1410.05 25.8773 1411.09 28.32H1411.26C1411.9 27.195 1412.83 26.3096 1414.05 25.6533C1415.27 24.9867 1416.67 24.6533 1418.24 24.6533C1420.7 24.6533 1422.53 25.2887 1423.74 26.5492C1424.96 27.7992 1425.57 29.8096 1425.57 32.57V46.695H1422.3Z" fill="#032854"/>
</g>
<mask id="mask16_5_1169" style="mask-type:luminance" maskUnits="userSpaceOnUse" x="89" y="2" width="379" height="58">
<path d="M467.005 2.2085H89.6719V59.5418H467.005V2.2085Z" fill="white"/>
</mask>
<g mask="url(#mask16_5_1169)">
<path d="M107.317 46.6953L106.671 43.612H106.504C105.421 44.9766 104.343 45.8984 103.275 46.3828C102.202 46.8516 100.864 47.0911 99.2544 47.0911C97.1138 47.0911 95.4315 46.5443 94.2127 45.4453C92.9888 44.3359 92.3794 42.7578 92.3794 40.7161C92.3794 36.3411 95.8794 34.0495 102.879 33.8411L106.546 33.7161V32.3828C106.546 30.6745 106.176 29.4193 105.442 28.612C104.718 27.8099 103.551 27.4036 101.942 27.4036C100.135 27.4036 98.0929 27.9557 95.8169 29.0495L94.8169 26.5495C95.8846 25.9661 97.0513 25.5182 98.3169 25.1953C99.5929 24.862 100.869 24.6953 102.15 24.6953C104.718 24.6953 106.629 25.2734 107.879 26.4245C109.129 27.5651 109.754 29.3984 109.754 31.9245V46.6953H107.317ZM99.9002 44.3828C101.942 44.3828 103.546 43.8307 104.713 42.7161C105.879 41.5911 106.463 40.0234 106.463 38.0078V36.0495L103.192 36.1953C100.577 36.2786 98.6971 36.6849 97.5461 37.4036C96.3898 38.1276 95.8169 39.2474 95.8169 40.7578C95.8169 41.9401 96.1711 42.8411 96.8794 43.4661C97.5981 44.0807 98.6086 44.3828 99.9002 44.3828Z" fill="#032854"/>
<path d="M125.552 24.6533C126.51 24.6533 127.369 24.7314 128.135 24.8825L127.677 27.9242C126.786 27.7314 126 27.6325 125.323 27.6325C123.573 27.6325 122.073 28.3512 120.823 29.7783C119.573 31.195 118.948 32.9606 118.948 35.07V46.695H115.677V25.0492H118.385L118.76 29.0492H118.906C119.708 27.6481 120.677 26.5648 121.802 25.7992C122.937 25.0387 124.187 24.6533 125.552 24.6533Z" fill="#032854"/>
<path d="M127.931 25.0498H131.452L136.181 37.3831C137.223 40.2061 137.868 42.2373 138.118 43.4873H138.285C138.452 42.8206 138.806 41.6748 139.348 40.0498C139.9 38.4248 141.691 33.4248 144.723 25.0498H148.243L138.931 49.6956C138.014 52.1383 136.936 53.8675 135.702 54.8831C134.462 55.9092 132.952 56.4248 131.16 56.4248C130.16 56.4248 129.17 56.305 128.202 56.0706V53.4456C128.92 53.6123 129.733 53.6956 130.639 53.6956C132.889 53.6956 134.493 52.43 135.452 49.904L136.66 46.8206L127.931 25.0498Z" fill="#032854"/>
<path d="M154.012 25.0498V39.0915C154.012 40.8571 154.413 42.1748 155.22 43.0498C156.022 43.9144 157.283 44.3415 158.991 44.3415C161.252 44.3415 162.908 43.7269 163.949 42.4873C165.002 41.2529 165.533 39.2321 165.533 36.4248V25.0498H168.804V46.6956H166.095L165.616 43.7998H165.449C164.767 44.8571 163.83 45.6696 162.637 46.2373C161.455 46.805 160.101 47.0915 158.574 47.0915C155.934 47.0915 153.96 46.4665 152.658 45.2165C151.351 43.9665 150.699 41.9665 150.699 39.2165V25.0498H154.012Z" fill="#032854"/>
<path d="M184.076 47.0908C180.878 47.0908 178.352 46.1221 176.493 44.1742C174.644 42.2158 173.722 39.5075 173.722 36.0492C173.722 32.5648 174.581 29.7939 176.305 27.7367C178.024 25.6846 180.331 24.6533 183.222 24.6533C185.93 24.6533 188.076 25.5492 189.659 27.3408C191.243 29.1221 192.034 31.4658 192.034 34.3825V36.4658H177.118C177.185 39.0075 177.826 40.9398 179.034 42.2575C180.253 43.5648 181.977 44.2158 184.201 44.2158C186.519 44.2158 188.826 43.7314 191.118 42.7575V45.695C189.951 46.195 188.847 46.5492 187.805 46.7575C186.774 46.9762 185.534 47.0908 184.076 47.0908ZM183.18 27.4033C181.44 27.4033 180.055 27.9762 179.013 29.1117C177.982 30.2367 177.378 31.7992 177.201 33.7992H188.513C188.513 31.7314 188.055 30.1481 187.138 29.0492C186.222 27.9554 184.899 27.4033 183.18 27.4033Z" fill="#032854"/>
<path d="M211.612 46.695V32.695C211.612 30.9346 211.206 29.6117 210.404 28.7367C209.597 27.8617 208.341 27.4242 206.633 27.4242C204.368 27.4242 202.706 28.0439 201.654 29.2783C200.597 30.5023 200.071 32.5231 200.071 35.3408V46.695H196.8V25.0492H199.466L200.008 28.0075H200.154C200.821 26.9398 201.758 26.1117 202.966 25.5283C204.185 24.945 205.539 24.6533 207.029 24.6533C209.638 24.6533 211.597 25.2887 212.904 26.5492C214.222 27.7992 214.883 29.8096 214.883 32.57V46.695H211.612Z" fill="#032854"/>
<path d="M227.801 44.3825C228.369 44.3825 228.926 44.3408 229.468 44.2575C230.01 44.1742 230.437 44.0856 230.76 43.9867V46.5075C230.395 46.6742 229.869 46.8096 229.176 46.9242C228.494 47.0335 227.874 47.0908 227.322 47.0908C223.124 47.0908 221.03 44.8825 221.03 40.4658V27.5908H217.926V26.0075L221.03 24.6533L222.426 20.0283H224.322V25.0492H230.593V27.5908H224.322V40.3408C224.322 41.6481 224.624 42.6481 225.239 43.3408C225.864 44.0387 226.718 44.3825 227.801 44.3825Z" fill="#032854"/>
<path d="M243.408 47.0908C240.21 47.0908 237.684 46.1221 235.825 44.1742C233.976 42.2158 233.054 39.5075 233.054 36.0492C233.054 32.5648 233.914 29.7939 235.638 27.7367C237.356 25.6846 239.664 24.6533 242.554 24.6533C245.263 24.6533 247.408 25.5492 248.992 27.3408C250.575 29.1221 251.367 31.4658 251.367 34.3825V36.4658H236.45C236.518 39.0075 237.158 40.9398 238.367 42.2575C239.585 43.5648 241.309 44.2158 243.533 44.2158C245.851 44.2158 248.158 43.7314 250.45 42.7575V45.695C249.283 46.195 248.179 46.5492 247.138 46.7575C246.106 46.9762 244.867 47.0908 243.408 47.0908ZM242.513 27.4033C240.773 27.4033 239.388 27.9762 238.346 29.1117C237.315 30.2367 236.71 31.7992 236.533 33.7992H247.846C247.846 31.7314 247.388 30.1481 246.471 29.0492C245.554 27.9554 244.231 27.4033 242.513 27.4033Z" fill="#032854"/>
<path d="M266.007 24.6533C266.966 24.6533 267.825 24.7314 268.591 24.8825L268.132 27.9242C267.242 27.7314 266.455 27.6325 265.778 27.6325C264.028 27.6325 262.528 28.3512 261.278 29.7783C260.028 31.195 259.403 32.9606 259.403 35.07V46.695H256.132V25.0492H258.841L259.216 29.0492H259.361C260.164 27.6481 261.132 26.5648 262.257 25.7992C263.393 25.0387 264.643 24.6533 266.007 24.6533Z" fill="#032854"/>
<path d="M281.886 47.0908C280.48 47.0908 279.199 46.8304 278.032 46.32C276.865 45.7939 275.886 44.9867 275.095 43.9033H274.865C275.016 45.1689 275.095 46.3721 275.095 47.5075V56.4242H271.824V25.0492H274.49L274.949 28.0075H275.095C275.938 26.8304 276.917 25.9762 278.032 25.445C279.157 24.9189 280.438 24.6533 281.886 24.6533C284.761 24.6533 286.975 25.6325 288.532 27.5908C290.1 29.5492 290.886 32.2992 290.886 35.8408C290.886 39.3981 290.084 42.1637 288.49 44.1325C286.907 46.1064 284.704 47.0908 281.886 47.0908ZM281.428 27.4242C279.204 27.4242 277.6 28.0439 276.615 29.2783C275.626 30.5023 275.121 32.445 275.095 35.1117V35.8408C275.095 38.8825 275.6 41.0648 276.615 42.3825C277.626 43.6898 279.261 44.3408 281.511 44.3408C283.371 44.3408 284.829 43.5856 285.886 42.07C286.954 40.5596 287.49 38.4762 287.49 35.82C287.49 33.1117 286.954 31.0387 285.886 29.5908C284.829 28.1481 283.345 27.4242 281.428 27.4242Z" fill="#032854"/>
<path d="M305.661 24.6533C306.619 24.6533 307.479 24.7314 308.244 24.8825L307.786 27.9242C306.895 27.7314 306.109 27.6325 305.432 27.6325C303.682 27.6325 302.182 28.3512 300.932 29.7783C299.682 31.195 299.057 32.9606 299.057 35.07V46.695H295.786V25.0492H298.494L298.869 29.0492H299.015C299.817 27.6481 300.786 26.5648 301.911 25.7992C303.046 25.0387 304.296 24.6533 305.661 24.6533Z" fill="#032854"/>
<path d="M314.748 46.6953H311.477V25.0495H314.748V46.6953ZM311.207 19.1745C311.207 18.4245 311.384 17.8776 311.748 17.5286C312.123 17.1849 312.587 17.0078 313.144 17.0078C313.654 17.0078 314.102 17.1901 314.477 17.5495C314.863 17.8984 315.061 18.4401 315.061 19.1745C315.061 19.9141 314.863 20.4609 314.477 20.8203C314.102 21.1849 313.654 21.362 313.144 21.362C312.587 21.362 312.123 21.1849 311.748 20.8203C311.384 20.4609 311.207 19.9141 311.207 19.1745Z" fill="#032854"/>
<path d="M334.85 40.7783C334.85 42.8096 334.1 44.3721 332.6 45.4658C331.1 46.5492 328.996 47.0908 326.288 47.0908C323.413 47.0908 321.168 46.6429 319.559 45.7367V42.695C320.6 43.2106 321.715 43.6221 322.913 43.9242C324.106 44.2314 325.257 44.3825 326.371 44.3825C328.08 44.3825 329.392 44.1117 330.309 43.57C331.236 43.0179 331.705 42.1846 331.705 41.07C331.705 40.2262 331.335 39.5023 330.6 38.9033C329.861 38.3096 328.439 37.6012 326.33 36.7783C324.314 36.0283 322.876 35.3773 322.017 34.82C321.168 34.2523 320.538 33.6117 320.121 32.9033C319.715 32.195 319.517 31.3512 319.517 30.3617C319.517 28.6012 320.231 27.2106 321.663 26.195C323.09 25.1689 325.059 24.6533 327.559 24.6533C329.892 24.6533 332.168 25.1273 334.392 26.07L333.246 28.7367C331.064 27.8512 329.09 27.4033 327.33 27.4033C325.772 27.4033 324.6 27.6481 323.809 28.1325C323.017 28.6221 322.621 29.2887 322.621 30.1325C322.621 30.7158 322.767 31.2158 323.059 31.6325C323.361 32.0387 323.84 32.4242 324.496 32.7992C325.163 33.1637 326.423 33.6898 328.288 34.3825C330.856 35.3304 332.59 36.2731 333.496 37.2158C334.397 38.1637 334.85 39.3512 334.85 40.7783Z" fill="#032854"/>
<path d="M348.513 47.0908C345.315 47.0908 342.789 46.1221 340.929 44.1742C339.08 42.2158 338.158 39.5075 338.158 36.0492C338.158 32.5648 339.018 29.7939 340.742 27.7367C342.461 25.6846 344.768 24.6533 347.658 24.6533C350.367 24.6533 352.513 25.5492 354.096 27.3408C355.679 29.1221 356.471 31.4658 356.471 34.3825V36.4658H341.554C341.622 39.0075 342.263 40.9398 343.471 42.2575C344.69 43.5648 346.414 44.2158 348.638 44.2158C350.955 44.2158 353.263 43.7314 355.554 42.7575V45.695C354.388 46.195 353.283 46.5492 352.242 46.7575C351.211 46.9762 349.971 47.0908 348.513 47.0908ZM347.617 27.4033C345.877 27.4033 344.492 27.9762 343.45 29.1117C342.419 30.2367 341.815 31.7992 341.638 33.7992H352.95C352.95 31.7314 352.492 30.1481 351.575 29.0492C350.658 27.9554 349.336 27.4033 347.617 27.4033Z" fill="#032854"/>
<path d="M375.195 40.7783C375.195 42.8096 374.445 44.3721 372.945 45.4658C371.445 46.5492 369.341 47.0908 366.632 47.0908C363.757 47.0908 361.513 46.6429 359.903 45.7367V42.695C360.945 43.2106 362.059 43.6221 363.257 43.9242C364.45 44.2314 365.601 44.3825 366.716 44.3825C368.424 44.3825 369.737 44.1117 370.653 43.57C371.58 43.0179 372.049 42.1846 372.049 41.07C372.049 40.2262 371.679 39.5023 370.945 38.9033C370.205 38.3096 368.783 37.6012 366.674 36.7783C364.658 36.0283 363.221 35.3773 362.362 34.82C361.513 34.2523 360.882 33.6117 360.466 32.9033C360.059 32.195 359.862 31.3512 359.862 30.3617C359.862 28.6012 360.575 27.2106 362.007 26.195C363.434 25.1689 365.403 24.6533 367.903 24.6533C370.237 24.6533 372.513 25.1273 374.737 26.07L373.591 28.7367C371.408 27.8512 369.434 27.4033 367.674 27.4033C366.117 27.4033 364.945 27.6481 364.153 28.1325C363.362 28.6221 362.966 29.2887 362.966 30.1325C362.966 30.7158 363.112 31.2158 363.403 31.6325C363.705 32.0387 364.184 32.4242 364.841 32.7992C365.507 33.1637 366.768 33.6898 368.632 34.3825C371.2 35.3304 372.934 36.2731 373.841 37.2158C374.742 38.1637 375.195 39.3512 375.195 40.7783Z" fill="#032854"/>
<path d="M379.232 44.5915C379.232 43.7165 379.43 43.0602 379.836 42.6123C380.237 42.154 380.816 41.9248 381.566 41.9248C382.326 41.9248 382.925 42.154 383.357 42.6123C383.784 43.0602 384.003 43.7165 384.003 44.5915C384.003 45.4561 383.779 46.1123 383.336 46.5706C382.904 47.029 382.316 47.2581 381.566 47.2581C380.899 47.2581 380.342 47.055 379.899 46.654C379.451 46.2373 379.232 45.5498 379.232 44.5915Z" fill="#032854"/>
<path d="M398.305 47.0908C395.18 47.0908 392.753 46.1273 391.034 44.195C389.31 42.2679 388.451 39.5387 388.451 36.0075C388.451 32.3825 389.315 29.5856 391.055 27.6117C392.805 25.6429 395.294 24.6533 398.534 24.6533C399.576 24.6533 400.607 24.7679 401.638 24.9867C402.68 25.2106 403.498 25.4762 404.097 25.7783L403.097 28.57C402.373 28.2783 401.581 28.0387 400.722 27.8408C399.857 27.6481 399.102 27.5492 398.451 27.5492C394.044 27.5492 391.847 30.3564 391.847 35.9658C391.847 38.6325 392.378 40.6742 393.451 42.0908C394.534 43.5075 396.123 44.2158 398.222 44.2158C400.024 44.2158 401.878 43.8356 403.784 43.07V45.9658C402.336 46.7158 400.513 47.0908 398.305 47.0908Z" fill="#032854"/>
<path d="M426.782 35.8408C426.782 39.3825 425.891 42.1481 424.115 44.1325C422.334 46.1064 419.876 47.0908 416.74 47.0908C414.808 47.0908 413.094 46.6429 411.594 45.7367C410.094 44.82 408.933 43.5179 408.115 41.82C407.292 40.1117 406.886 38.1221 406.886 35.8408C406.886 32.3148 407.766 29.57 409.532 27.6117C411.292 25.6429 413.745 24.6533 416.886 24.6533C419.912 24.6533 422.313 25.6637 424.094 27.6742C425.886 29.6898 426.782 32.4137 426.782 35.8408ZM410.282 35.8408C410.282 38.6221 410.829 40.7314 411.928 42.1742C413.037 43.6221 414.667 44.3408 416.823 44.3408C418.975 44.3408 420.605 43.6221 421.719 42.1742C422.829 40.7314 423.386 38.6221 423.386 35.8408C423.386 33.0908 422.829 31.0023 421.719 29.57C420.605 28.1429 418.959 27.4242 416.782 27.4242C414.641 27.4242 413.021 28.1325 411.928 29.5492C410.829 30.9554 410.282 33.0492 410.282 35.8408Z" fill="#032854"/>
<path d="M459.305 46.695V32.6117C459.305 30.8929 458.93 29.6012 458.18 28.7367C457.441 27.8617 456.295 27.4242 454.743 27.4242C452.711 27.4242 451.206 28.0179 450.222 29.195C449.248 30.3617 448.763 32.1689 448.763 34.6117V46.695H445.493V32.6117C445.493 30.8929 445.123 29.6012 444.388 28.7367C443.649 27.8617 442.498 27.4242 440.93 27.4242C438.873 27.4242 437.368 28.0439 436.409 29.2783C435.451 30.5179 434.972 32.5387 434.972 35.3408V46.695H431.701V25.0492H434.368L434.909 28.0075H435.055C435.68 26.9554 436.555 26.1325 437.68 25.5492C438.805 24.9554 440.06 24.6533 441.451 24.6533C444.836 24.6533 447.055 25.8773 448.097 28.32H448.263C448.899 27.195 449.831 26.3096 451.055 25.6533C452.274 24.9867 453.67 24.6533 455.243 24.6533C457.701 24.6533 459.534 25.2887 460.743 26.5492C461.961 27.7992 462.576 29.8096 462.576 32.57V46.695H459.305Z" fill="#032854"/>
</g>
<mask id="mask17_5_1169" style="mask-type:luminance" maskUnits="userSpaceOnUse" x="0" y="0" width="75" height="75">
<path d="M0 0H74.0156V74.0208H0V0Z" fill="white"/>
</mask>
<g mask="url(#mask17_5_1169)">
<mask id="mask18_5_1169" style="mask-type:luminance" maskUnits="userSpaceOnUse" x="0" y="0" width="75" height="75">
<path d="M37.0052 0C16.5677 0 0 16.5677 0 37.0104C0 57.4479 16.5677 74.0208 37.0052 74.0208C57.4479 74.0208 74.0156 57.4479 74.0156 37.0104C74.0156 16.5677 57.4479 0 37.0052 0Z" fill="white"/>
</mask>
<g mask="url(#mask18_5_1169)">
<mask id="mask19_5_1169" style="mask-type:luminance" maskUnits="userSpaceOnUse" x="-1" y="-1" width="77" height="76">
<path d="M75.0051 -0.458008H-0.994873V74.2087H75.0051V-0.458008Z" fill="white"/>
</mask>
<g mask="url(#mask19_5_1169)">
<mask id="mask20_5_1169" style="mask-type:luminance" maskUnits="userSpaceOnUse" x="0" y="0" width="75" height="75">
<path d="M0 0H74.0156V74.0208H0V0Z" fill="white"/>
</mask>
<g mask="url(#mask20_5_1169)">
<mask id="mask21_5_1169" style="mask-type:luminance" maskUnits="userSpaceOnUse" x="0" y="0" width="75" height="75">
<path d="M37.0052 0C16.5677 0 0 16.5677 0 37.0104C0 57.4479 16.5677 74.0208 37.0052 74.0208C57.4479 74.0208 74.0156 57.4479 74.0156 37.0104C74.0156 16.5677 57.4479 0 37.0052 0Z" fill="white"/>
</mask>
<g mask="url(#mask21_5_1169)">
<path d="M0 0H74.0156V74.0208H0V0Z" fill="#202E7E"/>
</g>
</g>
</g>
</g>
</g>
<path d="M33.1926 19.5835C33.078 19.6095 32.9635 19.6408 32.8489 19.6668C32.6197 19.7189 32.3958 19.771 32.177 19.8335C32.0103 19.8752 31.8437 19.9325 31.677 19.9845C31.4635 20.047 31.2499 20.1147 31.0364 20.1877C30.8697 20.245 30.7083 20.3127 30.5468 20.3752C30.3385 20.4533 30.1353 20.5314 29.9322 20.62C29.7655 20.6877 29.6093 20.7606 29.4478 20.8387C29.2499 20.9272 29.052 21.021 28.8593 21.12C28.6978 21.1981 28.5416 21.2866 28.3853 21.37C28.1978 21.4741 28.0103 21.5783 27.8228 21.6877C27.6718 21.7814 27.5208 21.8752 27.3697 21.9741C27.1874 22.0887 27.0051 22.2085 26.828 22.3283C26.6822 22.4325 26.5364 22.5366 26.3905 22.646C26.2187 22.771 26.0468 22.9012 25.8801 23.0366C25.7395 23.146 25.5989 23.2606 25.4583 23.3804C25.2968 23.5158 25.1353 23.6616 24.9739 23.8075C24.8437 23.9272 24.7083 24.047 24.578 24.172C24.4218 24.3231 24.2708 24.4793 24.1197 24.6356C23.9947 24.7658 23.8697 24.896 23.7499 25.0314C23.6041 25.1929 23.4635 25.3595 23.3176 25.5262C23.203 25.6668 23.0885 25.8075 22.9739 25.9481C22.8385 26.12 22.7083 26.3022 22.578 26.4793C22.4687 26.6252 22.3645 26.771 22.2603 26.922C22.1301 27.1043 22.0103 27.297 21.8905 27.4897C21.7968 27.6408 21.6978 27.7918 21.6041 27.9481C21.578 27.995 21.552 28.047 21.5208 28.0991C23.7239 28.8647 26.3541 29.4481 29.1926 29.8387C29.9426 25.3387 31.3645 21.7033 33.1926 19.5835Z" fill="white"/>
<mask id="mask22_5_1169" style="mask-type:luminance" maskUnits="userSpaceOnUse" x="29" y="19" width="16" height="13">
<path d="M29.6719 19.1514H44.3385V31.542H29.6719V19.1514Z" fill="white"/>
</mask>
<g mask="url(#mask22_5_1169)">
<path d="M43.1093 30.0368C42.0103 23.3441 39.4218 19.1826 36.9635 19.1826C34.5051 19.1826 31.9166 23.3441 30.8176 30.0368C34.7603 30.4535 39.1718 30.4535 43.1093 30.0368Z" fill="white"/>
</g>
<mask id="mask23_5_1169" style="mask-type:luminance" maskUnits="userSpaceOnUse" x="19" y="28" width="11" height="17">
<path d="M19.1458 28.875H29.6718V44.875H19.1458V28.875Z" fill="white"/>
</mask>
<g mask="url(#mask23_5_1169)">
<path d="M28.63 37.026C28.63 35.0885 28.7446 33.224 28.9634 31.4688C25.9217 31.0521 23.1144 30.401 20.7603 29.5625C19.6717 31.901 19.1196 34.4063 19.1196 37.026C19.1196 39.6458 19.6717 42.1562 20.7603 44.4896C23.1144 43.651 25.9165 43 28.9634 42.5833C28.7446 40.8281 28.63 38.9635 28.63 37.026Z" fill="white"/>
</g>
<path d="M52.4062 28.0939C52.375 28.047 52.349 27.995 52.3177 27.9429C52.2292 27.7918 52.1354 27.6408 52.0417 27.495C51.9167 27.297 51.7969 27.1043 51.6667 26.9168C51.5625 26.771 51.4583 26.6252 51.3542 26.4845C51.224 26.3022 51.0885 26.12 50.9479 25.9429C50.8385 25.8022 50.724 25.6668 50.6094 25.5314C50.4688 25.3647 50.3229 25.1929 50.1719 25.0262C50.0573 24.896 49.9323 24.7658 49.8125 24.6408C49.6562 24.4793 49.5 24.3231 49.3438 24.172C49.2135 24.047 49.0885 23.9272 48.9583 23.8075C48.7917 23.6616 48.6302 23.5158 48.4583 23.3752C48.3229 23.2606 48.1875 23.1512 48.0521 23.0366C47.8802 22.9012 47.7083 22.771 47.5312 22.6408C47.3854 22.5366 47.2448 22.4325 47.099 22.3335C46.9219 22.2085 46.7344 22.0887 46.5521 21.9741C46.4062 21.8752 46.2552 21.7814 46.1042 21.6929C45.9167 21.5783 45.724 21.4741 45.5365 21.37C45.3802 21.2866 45.224 21.1981 45.0677 21.12C44.875 21.021 44.6719 20.9272 44.474 20.8335C44.3177 20.7606 44.1562 20.6877 43.9948 20.62C43.7917 20.5314 43.5833 20.4533 43.3802 20.37C43.2187 20.3075 43.0521 20.245 42.8906 20.1877C42.6771 20.1147 42.4635 20.047 42.25 19.9845C42.0833 19.9325 41.9219 19.8752 41.75 19.8335C41.5312 19.771 41.3073 19.7189 41.0833 19.6668C40.9635 19.6408 40.849 19.6095 40.7344 19.5835C42.5625 21.7033 43.9844 25.3387 44.7292 29.8335C47.5729 29.4481 50.2031 28.8595 52.4062 28.0939Z" fill="white"/>
<path d="M30.5885 31.6616C30.3853 33.3283 30.2708 35.1147 30.2708 37.0262C30.2708 38.9377 30.3853 40.7241 30.5885 42.3908C34.6718 41.9481 39.2551 41.9481 43.3437 42.3908C43.5416 40.7241 43.6562 38.9325 43.6562 37.0262C43.6562 35.1147 43.5416 33.3231 43.3437 31.6616C41.3072 31.8804 39.1718 32.0002 36.9635 32.0002C34.7603 32.0002 32.6249 31.8804 30.5885 31.6616Z" fill="white"/>
<path d="M44.9634 31.4688C45.1821 33.224 45.2967 35.0885 45.2967 37.026C45.2967 38.9635 45.1821 40.8281 44.9634 42.5833C48.0103 43 50.8123 43.651 53.1665 44.4896C54.255 42.1562 54.8123 39.6458 54.8123 37.026C54.8123 34.401 54.255 31.8958 53.1665 29.5625C50.8123 30.401 48.0103 31.0521 44.9634 31.4688Z" fill="white"/>
<mask id="mask24_5_1169" style="mask-type:luminance" maskUnits="userSpaceOnUse" x="40" y="43" width="14" height="13">
<path d="M40.3384 43.542H53.6717V55.1514H40.3384V43.542Z" fill="white"/>
</mask>
<g mask="url(#mask24_5_1169)">
<path d="M40.7341 54.4688C40.8487 54.4427 40.9581 54.4115 41.0727 54.3854C41.2966 54.3333 41.5206 54.2865 41.7393 54.224C41.906 54.1771 42.0727 54.125 42.2393 54.0729C42.4529 54.0052 42.6664 53.9427 42.8748 53.8698C43.0414 53.8125 43.2029 53.7448 43.3695 53.6823C43.5727 53.6042 43.7758 53.526 43.9789 53.4427C44.1404 53.3698 44.3018 53.2917 44.4633 53.2188C44.6612 53.1302 44.8539 53.0365 45.0466 52.9427C45.2081 52.8594 45.3643 52.7708 45.5206 52.6875C45.7081 52.5833 45.8956 52.4792 46.0831 52.3698C46.2341 52.2813 46.3852 52.1823 46.5414 52.0885C46.7185 51.9688 46.9008 51.8542 47.0727 51.7344C47.2237 51.6302 47.3695 51.526 47.5154 51.4219C47.6873 51.2917 47.8539 51.1667 48.0258 51.0312C48.1664 50.9219 48.307 50.8073 48.4425 50.6875C48.6091 50.5521 48.7706 50.4115 48.9268 50.2656C49.0623 50.1458 49.1977 50.0208 49.3279 49.8958C49.4789 49.7448 49.6352 49.5938 49.781 49.4427C49.906 49.3073 50.0362 49.1771 50.156 49.0417C50.3018 48.8802 50.4425 48.7188 50.5831 48.5521C50.7029 48.4115 50.8175 48.276 50.932 48.1302C51.0675 47.9583 51.1977 47.7813 51.3279 47.6042C51.4373 47.4583 51.5466 47.3125 51.6508 47.1615C51.7758 46.9792 51.8956 46.7917 52.0154 46.6042C52.1143 46.4479 52.2081 46.2969 52.3018 46.1354C52.3383 46.0781 52.3695 46.0156 52.406 45.9583C50.2029 45.1875 47.5727 44.6042 44.7289 44.2188C43.9893 48.7135 42.5623 52.3438 40.7341 54.4688Z" fill="white"/>
</g>
<mask id="mask25_5_1169" style="mask-type:luminance" maskUnits="userSpaceOnUse" x="20" y="43" width="14" height="13">
<path d="M20.3384 43.542H33.6717V55.1514H20.3384V43.542Z" fill="white"/>
</mask>
<g mask="url(#mask25_5_1169)">
<path d="M21.5208 45.9583C21.5572 46.0156 21.5885 46.0729 21.6197 46.1302C21.7187 46.2969 21.8228 46.4531 21.9218 46.6146C22.0364 46.7969 22.1562 46.9792 22.276 47.1562C22.3853 47.3125 22.4947 47.4635 22.6041 47.6146C22.7343 47.7865 22.8645 47.9583 22.9947 48.125C23.1093 48.2708 23.2291 48.4167 23.3489 48.5573C23.4843 48.7187 23.6249 48.8802 23.7708 49.0417C23.8958 49.1771 24.0208 49.3073 24.1458 49.4427C24.2968 49.5938 24.4478 49.7448 24.5989 49.8958C24.7343 50.0208 24.8645 50.1458 24.9999 50.2656C25.1614 50.4115 25.3176 50.5521 25.4843 50.6875C25.6197 50.8073 25.7603 50.9219 25.9062 51.0312C26.0728 51.1667 26.2395 51.2917 26.4114 51.4167C26.5572 51.526 26.703 51.6302 26.8541 51.7344C27.0312 51.8542 27.2083 51.974 27.3905 52.0885C27.5416 52.1823 27.6926 52.2813 27.8489 52.3698C28.0312 52.4792 28.2187 52.5833 28.4062 52.6875C28.5624 52.7708 28.7187 52.8594 28.8801 52.9427C29.0728 53.0365 29.2708 53.1302 29.4635 53.2188C29.6249 53.2917 29.7864 53.3698 29.9478 53.4375C30.151 53.526 30.3593 53.6042 30.5624 53.6823C30.7239 53.7448 30.8905 53.8073 31.052 53.8698C31.2655 53.9427 31.4791 54.0052 31.6926 54.0729C31.8593 54.125 32.0208 54.1771 32.1874 54.224C32.4062 54.2865 32.6301 54.3333 32.8541 54.3854C32.9687 54.4115 33.078 54.4427 33.1926 54.4688C31.3645 52.3438 29.9374 48.7083 29.1978 44.2188C26.3541 44.6042 23.7239 45.1875 21.5208 45.9583Z" fill="white"/>
</g>
<mask id="mask26_5_1169" style="mask-type:luminance" maskUnits="userSpaceOnUse" x="29" y="43" width="16" height="13">
<path d="M29.6719 43.542H44.3385V55.1514H29.6719V43.542Z" fill="white"/>
</mask>
<g mask="url(#mask26_5_1169)">
<path d="M30.8176 44.0156C31.9166 50.7083 34.5051 54.8698 36.9635 54.8698C39.427 54.8698 42.0103 50.7083 43.1093 44.0156C39.1666 43.599 34.7551 43.599 30.8176 44.0156Z" fill="white"/>
</g>
</svg>
